<svg width="31" height="32" viewBox="0 0 31 32" fill="none" xmlns="http://www.w3.org/2000/svg">
<path d="M15.5 31.0753C24.0604 31.0753 31 24.119 31 15.5378C31 6.95669 24.0604 0.000305176 15.5 0.000305176C6.93959 0.000305176 0 6.95669 0 15.5378C0 24.119 6.93959 31.0753 15.5 31.0753Z" fill="white"/>
<path fill-rule="evenodd" clip-rule="evenodd" d="M1.16858 9.94519C2.8173 9.08935 4.654 8.76858 6.23097 9.96389H6.6141C6.86234 9.40435 7.17946 8.87215 7.54249 8.35864H1.84156C1.51152 8.83763 1.30203 9.37271 1.16858 9.94519Z" fill="#064EA1"/>
<path fill-rule="evenodd" clip-rule="evenodd" d="M7.12671 2.61082C12.0155 -0.61837 18.1512 -1.1103 23.9167 2.60219L7.12671 2.61082Z" fill="#064EA1"/>
<path fill-rule="evenodd" clip-rule="evenodd" d="M4.50916 4.67059L26.5438 4.7008C27.2813 5.49767 27.7362 6.03563 28.2542 6.81092H15.3213C13.3526 5.91049 11.3494 5.93638 9.46824 6.81092L2.80591 6.80229C3.3067 5.9896 3.87062 5.27328 4.50916 4.67059Z" fill="#064EA1"/>
<path fill-rule="evenodd" clip-rule="evenodd" d="M17.2584 8.36577L29.1697 8.36145C29.5083 8.83468 29.7236 9.36257 29.8757 9.91779L22.7054 9.94224C21.2963 8.97708 19.7537 9.0116 18.4437 9.93937H18.1911C17.9386 9.39565 17.6372 8.86345 17.2584 8.36577Z" fill="#064EA1"/>
<path fill-rule="evenodd" clip-rule="evenodd" d="M23.6455 10.9261L30.2461 10.9434C30.4413 11.3102 30.5489 11.6942 30.569 12.097L27.6001 12.1099C26.4422 11.4037 25.2684 11.2642 24.1908 12.0222H24.1348C24.0573 11.6353 23.9067 11.267 23.6455 10.9261Z" fill="#064EA1"/>
<path fill-rule="evenodd" clip-rule="evenodd" d="M27.9915 12.5674L30.6332 12.5717C30.7509 12.7846 30.8054 13.0018 30.8083 13.2204L28.3058 13.2319C28.2685 12.9816 28.168 12.7587 27.9915 12.5674Z" fill="#064EA1"/>
<path fill-rule="evenodd" clip-rule="evenodd" d="M0.0494995 15.3608L30.9921 15.3564L30.9978 15.8829L0.0509344 15.8843L0.0494995 15.3608Z" fill="#605E5F"/>
<path fill-rule="evenodd" clip-rule="evenodd" d="M0.299289 17.9326L7.77235 17.9225C8.03637 18.1195 8.2387 18.3137 8.38219 18.6086H0.393994C0.316508 18.3799 0.294984 18.1555 0.299289 17.9326Z" fill="#26983A"/>
<path fill-rule="evenodd" clip-rule="evenodd" d="M0.455444 19.0228H8.9186L9.88717 20.0585L30.2745 20.0671C30.2889 20.2857 30.2386 20.4914 30.1138 20.6813L10.431 20.6899C10.2976 20.5389 10.1684 20.3835 10.0479 20.221L0.785476 20.2196C0.630504 19.8255 0.525755 19.427 0.455444 19.0228Z" fill="#26983A"/>
<path fill-rule="evenodd" clip-rule="evenodd" d="M1.16577 21.2251L29.8713 21.2294C29.801 21.6005 29.6518 21.9659 29.4064 22.3255L12.206 22.3168L12.6078 22.7987L1.86745 22.7901C1.53455 22.2938 1.31213 21.7688 1.16577 21.2251Z" fill="#26983A"/>
<path fill-rule="evenodd" clip-rule="evenodd" d="M2.81323 24.3435L14.0874 24.3478L13.0715 23.3265L28.857 23.3352C28.6403 23.8357 28.2716 24.3766 27.8454 24.8987L14.7503 24.9534L16.3345 26.5255L26.4478 26.5327C25.6514 27.3914 24.7646 28.0905 23.7946 28.6443L18.4295 28.6371L20.1514 30.3473C15.1607 31.9526 10.7297 30.881 7.0936 28.5493L18.2716 28.5623L16.333 26.5255L4.50644 26.4622C3.82055 25.7919 3.27097 25.0814 2.81323 24.3435Z" fill="#26983A"/>
</svg>
