<svg width="31" height="42" viewBox="0 0 31 42" fill="none" xmlns="http://www.w3.org/2000/svg">
<path d="M15.5 31.0753C24.0604 31.0753 31 24.119 31 15.5378C31 6.95669 24.0604 0.000305176 15.5 0.000305176C6.93959 0.000305176 0 6.95669 0 15.5378C0 24.119 6.93959 31.0753 15.5 31.0753Z" fill="white"/>
<path fill-rule="evenodd" clip-rule="evenodd" d="M1.16858 9.94519C2.8173 9.08935 4.654 8.76858 6.23097 9.96389H6.6141C6.86234 9.40435 7.17946 8.87215 7.54249 8.35864H1.84156C1.51152 8.83763 1.30203 9.37271 1.16858 9.94519Z" fill="#064EA1"/>
<path fill-rule="evenodd" clip-rule="evenodd" d="M7.12671 2.61082C12.0155 -0.61837 18.1512 -1.1103 23.9167 2.60219L7.12671 2.61082Z" fill="#064EA1"/>
<path fill-rule="evenodd" clip-rule="evenodd" d="M4.50916 4.67059L26.5438 4.7008C27.2813 5.49767 27.7362 6.03563 28.2542 6.81092H15.3213C13.3526 5.91049 11.3494 5.93638 9.46824 6.81092L2.80591 6.80229C3.3067 5.9896 3.87062 5.27328 4.50916 4.67059Z" fill="#064EA1"/>
<path fill-rule="evenodd" clip-rule="evenodd" d="M17.2584 8.36577L29.1697 8.36145C29.5083 8.83468 29.7236 9.36257 29.8757 9.91779L22.7054 9.94224C21.2963 8.97708 19.7537 9.0116 18.4437 9.93937H18.1911C17.9386 9.39565 17.6372 8.86345 17.2584 8.36577Z" fill="#064EA1"/>
<path fill-rule="evenodd" clip-rule="evenodd" d="M23.6455 10.9261L30.2461 10.9434C30.4413 11.3102 30.5489 11.6942 30.569 12.097L27.6001 12.1099C26.4422 11.4037 25.2684 11.2642 24.1908 12.0222H24.1348C24.0573 11.6353 23.9067 11.267 23.6455 10.9261Z" fill="#064EA1"/>
<path fill-rule="evenodd" clip-rule="evenodd" d="M27.9915 12.5674L30.6332 12.5717C30.7509 12.7846 30.8054 13.0018 30.8083 13.2204L28.3058 13.2319C28.2685 12.9816 28.168 12.7587 27.9915 12.5674Z" fill="#064EA1"/>
<path fill-rule="evenodd" clip-rule="evenodd" d="M0.0494995 15.3608L30.9921 15.3564L30.9978 15.8829L0.0509344 15.8843L0.0494995 15.3608Z" fill="#605E5F"/>
<path fill-rule="evenodd" clip-rule="evenodd" d="M0.299289 17.9326L7.77235 17.9225C8.03637 18.1195 8.2387 18.3137 8.38219 18.6086H0.393994C0.316508 18.3799 0.294984 18.1555 0.299289 17.9326Z" fill="#26983A"/>
<path fill-rule="evenodd" clip-rule="evenodd" d="M0.455444 19.0228H8.9186L9.88717 20.0585L30.2745 20.0671C30.2889 20.2857 30.2386 20.4914 30.1138 20.6813L10.431 20.6899C10.2976 20.5389 10.1684 20.3835 10.0479 20.221L0.785476 20.2196C0.630504 19.8255 0.525755 19.427 0.455444 19.0228Z" fill="#26983A"/>
<path fill-rule="evenodd" clip-rule="evenodd" d="M1.16577 21.2251L29.8713 21.2294C29.801 21.6005 29.6518 21.9659 29.4064 22.3255L12.206 22.3168L12.6078 22.7987L1.86745 22.7901C1.53455 22.2938 1.31213 21.7688 1.16577 21.2251Z" fill="#26983A"/>
<path fill-rule="evenodd" clip-rule="evenodd" d="M2.81323 24.3435L14.0874 24.3478L13.0715 23.3265L28.857 23.3352C28.6403 23.8357 28.2716 24.3766 27.8454 24.8987L14.7503 24.9534L16.3345 26.5255L26.4478 26.5327C25.6514 27.3914 24.7646 28.0905 23.7946 28.6443L18.4295 28.6371L20.1514 30.3473C15.1607 31.9526 10.7297 30.881 7.0936 28.5493L18.2716 28.5623L16.333 26.5255L4.50644 26.4622C3.82055 25.7919 3.27097 25.0814 2.81323 24.3435Z" fill="#26983A"/>
<path fill-rule="evenodd" clip-rule="evenodd" d="M2.05109 34.005H4.68755C5.21086 34.005 5.59868 34.0293 5.85475 34.0764C6.11205 34.1263 6.34077 34.2259 6.54338 34.3781C6.746 34.5316 6.91505 34.7337 7.0493 34.9882C7.18479 35.2414 7.25191 35.5283 7.25191 35.8434C7.25191 36.1842 7.16863 36.4993 7.0033 36.7835C6.83798 37.0704 6.61175 37.2832 6.32834 37.4259C6.7286 37.5566 7.03562 37.7788 7.25191 38.0926C7.46695 38.4064 7.57385 38.7741 7.57385 39.1983C7.57385 39.5323 7.50424 39.8556 7.36503 40.1707C7.22581 40.4859 7.03562 40.7377 6.79323 40.9276C6.55209 41.1148 6.255 41.2307 5.8995 41.2751C5.67824 41.3007 5.14249 41.3182 4.29475 41.3249H2.05109V34.005ZM3.3861 35.2226V36.9101H4.25746C4.77456 36.9101 5.0965 36.902 5.22205 36.8845C5.44952 36.8549 5.62852 36.7687 5.75903 36.6232C5.88955 36.4778 5.95419 36.2892 5.95419 36.0535C5.95419 35.8273 5.89701 35.6441 5.78514 35.5027C5.67327 35.3613 5.50546 35.2764 5.28544 35.2468C5.15368 35.2293 4.77456 35.2212 4.14932 35.2212H3.3861V35.2226ZM3.3861 38.1249V40.0886H4.62042C5.09899 40.0886 5.40477 40.0738 5.53405 40.0441C5.73169 40.0037 5.89328 39.9068 6.01758 39.7505C6.14189 39.5943 6.20528 39.3882 6.20528 39.127C6.20528 38.9061 6.15805 38.7202 6.06109 38.5667C5.96538 38.4131 5.82616 38.3014 5.64468 38.2313C5.46319 38.1613 5.06915 38.1263 4.46256 38.1263H3.3861V38.1249ZM8.68139 41.3263V34.0064H10.6814L11.8635 38.999L13.0307 34.0064H15.0345V41.3263H13.8002L13.7952 35.5633L12.495 41.3263H11.2134L9.91944 35.5633L9.91447 41.3263H8.68139ZM16.3882 41.3263V34.0064H17.7232V37.2495L20.4131 34.0064H22.2018L19.7145 36.8576L22.3311 41.3276H20.6095L18.7959 37.8906L17.7232 39.1135V41.3263H16.3882ZM26.085 38.6367V37.399H28.9489V40.3202C28.6717 40.6219 28.2678 40.8859 27.7382 41.1162C27.2099 41.3451 26.6742 41.4583 26.131 41.4583C25.4424 41.4583 24.842 41.298 24.3299 40.9761C23.819 40.6542 23.4336 40.1923 23.1763 39.5943C22.919 38.9963 22.7897 38.3431 22.7897 37.6401C22.7897 36.8764 22.9339 36.199 23.2211 35.6037C23.5095 35.0111 23.9296 34.5545 24.484 34.2367C24.9079 33.9929 25.4324 33.8717 26.0614 33.8717C26.8793 33.8717 27.5195 34.063 27.9794 34.4441C28.4381 34.8279 28.7339 35.3545 28.8669 36.0293L27.5406 36.3054C27.4486 35.9458 27.2733 35.6616 27.0173 35.4515C26.7625 35.2441 26.443 35.1391 26.0601 35.1391C25.4797 35.1391 25.0185 35.3438 24.6754 35.7545C24.3336 36.1653 24.1608 36.7741 24.1608 37.5795C24.1608 38.4509 24.3348 39.1027 24.6804 39.5377C25.0284 39.9727 25.4834 40.1909 26.0465 40.1909C26.3237 40.1909 26.6033 40.129 26.883 40.0091C27.164 39.8879 27.4026 39.7398 27.604 39.566V38.6367H26.085Z" fill="#171923"/>
</svg>
