<svg width="24" height="24" viewBox="0 0 24 24" fill="none" xmlns="http://www.w3.org/2000/svg">
<g clip-path="url(#clip0_35_1302)">
<path d="M12 4.18855e-05C13.326 4.18855e-05 14.597 0.220042 15.787 0.613042C10.847 -0.629958 7.31897 4.114 4.79797 8C3.50006 10.0007 1.87802 9.04904 0.484016 8.63104C1.20607 6.13708 2.72034 3.94594 4.79797 2.38881C6.8756 0.831671 9.40364 -0.00682849 12 4.18855e-05ZM16.342 2.15604C17.986 2.17504 19.637 2.93104 21.273 4.36304C23.0431 6.51376 24.0075 9.21458 24 12C23.816 9.17704 21.837 6.87204 19.13 6.93004C17.026 6.97404 14.482 8.44804 12 12.219C7.13002 19.687 1.08302 17.702 0.137016 13.729C0.0560163 13.163 1.71661e-05 12.589 1.71661e-05 12C1.71661e-05 11.824 0.0200176 11.653 0.0270176 11.479C1.67202 13.204 4.63506 13.32 8.00006 8C10.5901 3.637 13.602 2.12604 16.342 2.15604ZM19.5001 10C23.06 10 23.327 15.04 22.912 16.992C21.9602 19.0862 20.4244 20.8612 18.4888 22.1042C16.5533 23.3473 14.3003 24.0055 12 24C7.78502 24 4.10202 21.851 1.96302 18.588V18.545C4.79902 22.035 9.09106 18.937 14.0001 12.5C15.8141 10.114 18.1921 9.899 19.5001 10Z" fill="url(#paint0_linear_35_1302)"/>
</g>
<defs>
<linearGradient id="paint0_linear_35_1302" x1="12" y1="0" x2="12" y2="24.0001" gradientUnits="userSpaceOnUse">
<stop stop-color="#0063D8"/>
<stop offset="1" stop-color="#00D83C" stop-opacity="0"/>
</linearGradient>
<clipPath id="clip0_35_1302">
<rect width="24" height="24" fill="white"/>
</clipPath>
</defs>
</svg>
