<?xml version="1.0" encoding="UTF-8"?>
<!DOCTYPE svg PUBLIC "-//W3C//DTD SVG 1.1//EN" "http://www.w3.org/Graphics/SVG/1.1/DTD/svg11.dtd">
<!-- Creator: CorelDRAW X5 -->
<svg xmlns="http://www.w3.org/2000/svg" xml:space="preserve" width="130.468mm" height="130mm" style="shape-rendering:geometricPrecision; text-rendering:geometricPrecision; image-rendering:optimizeQuality; fill-rule:evenodd; clip-rule:evenodd"
viewBox="0 0 13047 13000"
 xmlns:xlink="http://www.w3.org/1999/xlink"
 xmlns:svg="http://www.w3.org/2000/svg">
 <defs>
  <style type="text/css">
   <![CDATA[
    .fil2 {fill:#1F68A9}
    .fil4 {fill:#2765A6}
    .fil3 {fill:#1471B8}
    .fil0 {fill:#FEFEFE}
    .fil1 {fill:#2765A6;fill-rule:nonzero}
   ]]>
  </style>
 </defs>
 <g id="Layer_x0020_1">
  <metadata id="CorelCorpID_0Corel-Layer"/>
 </g>
 <g id="svg2">
  <metadata id="CorelCorpID_1Corel-Layer"/>
  <path class="fil0" d="M6523 186c3499,0 6336,2827 6336,6314 0,3486 -2837,6314 -6336,6314 -3499,0 -6336,-2827 -6336,-6314 0,-3486 2837,-6314 6336,-6314zm0 2115c2305,0 4175,1870 4175,4175 0,2305 -1870,4175 -4175,4175 -2306,0 -4175,-1870 -4175,-4175 0,-2306 1870,-4175 4175,-4175zm0 -132c2378,0 4307,1929 4307,4307 0,2378 -1929,4307 -4307,4307 -2378,0 -4307,-1929 -4307,-4307 0,-2378 1929,-4307 4307,-4307zm0 -151c2461,0 4457,1996 4457,4458 0,2461 -1996,4458 -4457,4458 -2461,0 -4458,-1996 -4458,-4458 0,-2461 1996,-4458 4458,-4458zm-3664 9070l-65 -60c-43,-40 -71,-65 -85,-77 -12,-10 -65,-53 -159,-129l-1 -7 23 -27 8 0c25,21 46,36 60,46 15,10 27,16 36,17 10,1 22,-4 36,-17 15,-13 33,-32 56,-58l109 -122 217 -247 91 -105c35,-41 57,-68 65,-81 9,-13 13,-23 13,-30 0,-7 -4,-16 -11,-27 -7,-11 -30,-34 -66,-68l-1 -7 23 -27 8 -1c2,2 33,30 92,85 25,23 44,40 59,53 11,10 64,52 158,129l1 8 -23 27 -7 -1c-35,-27 -59,-45 -71,-52 -13,-8 -23,-11 -30,-11 -7,0 -16,5 -28,14 -12,9 -35,33 -69,70l-99 113 -217 247 -91 105c-35,41 -57,68 -66,81 -9,13 -13,23 -13,30 0,7 4,16 11,27 7,11 30,33 67,68l1 8 -23 27 -8 0zm268 -1072l-1 9 -25 21 -8 -1c-19,-22 -35,-38 -49,-50 -13,-12 -24,-17 -32,-17 -8,1 -19,5 -31,13 -12,8 -39,28 -80,60 -41,32 -70,55 -87,69l-442 368c-19,16 -30,30 -33,44 -3,14 -1,28 6,41 7,13 23,34 46,63l-1 8 -26 21 -8 0c-40,-52 -67,-85 -80,-101 -31,-37 -57,-66 -79,-88l80 -362 106 -522c13,-63 24,-125 32,-186l-423 352c-13,11 -41,35 -82,72 -42,37 -68,61 -78,72 -10,12 -15,21 -15,29 0,8 4,19 13,33 8,14 22,32 39,54l-1 8 -25 21 -9 0c-23,-31 -57,-74 -103,-128 -42,-49 -73,-85 -94,-106l1 -9 25 -21 8 1c21,24 38,41 51,52 13,11 24,16 32,15 8,-1 18,-6 30,-13 11,-8 38,-27 79,-59 41,-32 70,-55 87,-70l260 -216 150 -126c49,-42 97,-83 147,-125 9,23 28,61 57,113l-13 77 -45 234 -152 753 420 -349c17,-14 46,-39 88,-76 42,-37 67,-60 74,-70 8,-10 12,-17 13,-23 1,-6 -1,-15 -6,-27 -5,-12 -20,-33 -45,-63l1 -8 26 -22 8 1c13,21 38,52 73,94 46,54 87,100 124,139zm-992 -829l-8 -3 -16 -31 2 -8c53,-30 85,-49 95,-59 10,-10 17,-28 20,-54 4,-26 1,-57 -6,-93 -8,-36 -20,-70 -37,-103 -23,-44 -52,-80 -87,-108 -35,-27 -73,-43 -116,-46 -42,-4 -83,5 -123,25 -28,14 -50,31 -66,51 -16,20 -26,42 -29,65 -4,23 -3,47 2,72 5,25 15,61 30,108 15,46 26,82 32,108 7,27 10,55 11,84 1,29 -4,56 -13,81 -10,25 -25,48 -46,71 -21,22 -46,41 -75,56 -79,40 -158,45 -237,16 -79,-29 -142,-89 -189,-182 -19,-37 -35,-79 -48,-126 -13,-48 -20,-94 -20,-138l6 -8c44,-10 102,-33 175,-67l8 3 17 33 -2 7c-50,27 -82,44 -94,52 -12,9 -19,36 -20,82 -1,47 10,91 32,134 18,36 43,65 73,89 30,24 65,36 104,36 39,0 75,-8 107,-24 25,-13 45,-29 59,-48 14,-19 23,-40 27,-61 3,-21 2,-43 -2,-66 -5,-23 -18,-64 -37,-122 -28,-80 -43,-141 -45,-182 -2,-41 8,-81 30,-118 22,-37 56,-67 103,-90 90,-46 185,-47 282,-5 98,42 173,116 227,220 45,87 68,171 71,253l-6 8c-29,10 -93,38 -192,85zm-1341 -1247l4 -8c42,-9 114,-30 215,-63l7 4 10 32 -4 7 -60 28c-32,14 -52,24 -59,28 -7,4 -11,9 -13,15 -2,5 0,21 6,46 6,26 14,54 24,84l42 127c104,-29 163,-47 179,-52l396 -128 132 -44c51,-17 84,-29 99,-36 14,-7 23,-13 27,-19 3,-6 5,-15 4,-29 0,-13 -8,-44 -22,-93l3 -6 34 -11 7 3c34,116 53,181 58,194 5,15 28,78 68,190l-4 7 -34 11 -6 -4c-16,-42 -27,-69 -34,-82 -7,-13 -14,-21 -20,-24 -6,-3 -16,-4 -31,-3 -15,1 -47,10 -96,25l-144 45 -396 128c-7,2 -66,23 -176,62l33 100c13,41 26,77 38,106 12,30 22,46 31,48 9,2 35,-1 77,-10l65 -13 8 4 10 31 -4 7c-109,36 -179,61 -211,75l-8 -4c-22,-79 -63,-210 -122,-392 -61,-186 -105,-315 -134,-389zm-34 -205l-13 -88c-8,-58 -14,-95 -17,-113 -3,-16 -17,-82 -41,-199l4 -6 35 -6 6 5c7,32 13,56 17,74 5,17 11,29 17,36 7,7 20,10 39,9 19,-1 46,-4 80,-10l162 -27 326 -57 137 -25c53,-10 87,-17 102,-22 15,-5 25,-10 29,-15 4,-5 7,-15 8,-28 1,-13 -2,-45 -8,-94l3 -6 35 -6 7 4c0,3 6,44 18,124 5,33 9,59 12,78 3,15 16,81 41,199l-4 7 -35 6 -5 -5c-10,-43 -17,-71 -22,-85 -5,-14 -11,-23 -16,-27 -5,-4 -16,-6 -30,-7 -15,0 -48,3 -98,12l-148 26 -326 57 -137 25c-53,10 -88,17 -103,22 -15,5 -25,10 -29,15 -5,5 -7,15 -8,27 -1,13 2,45 9,94l-4 7 -35 6 -6 -5zm-130 -1449l6 -7c43,4 118,5 224,3l6 5 1 33 -6 6 -66 9c-35,4 -57,7 -64,10 -8,2 -14,6 -17,11 -4,5 -6,20 -8,46 -2,26 -3,55 -2,87l2 134c108,2 170,3 187,3l416 -7 139 -4c54,-1 89,-3 105,-6 16,-2 26,-6 31,-10 5,-5 9,-13 12,-26 3,-13 6,-45 7,-95l4 -5 36 -1 6 5c-2,121 -2,189 -2,203 0,15 3,82 9,202l-5 6 -36 1 -4 -6c-3,-44 -6,-74 -9,-88 -3,-14 -7,-24 -12,-29 -4,-5 -14,-9 -29,-12 -15,-3 -48,-4 -99,-3l-151 1 -416 7c-8,0 -70,3 -186,9l2 105c1,44 2,81 5,113 2,32 8,50 16,55 8,5 34,9 77,12l66 6 6 6 1 33 -5 6c-115,3 -190,6 -224,10l-7 -7c2,-82 2,-219 -1,-410 -3,-195 -8,-332 -13,-411zm-12 -273l-4 -6c26,-114 41,-180 45,-198 3,-16 14,-83 33,-201l6 -5 35 7 4 7c-5,32 -9,57 -10,75 -1,18 0,31 3,40 4,9 15,16 33,23 18,6 45,12 78,19l161 32 223 43c74,14 128,23 163,26 35,4 65,3 91,-3 26,-5 49,-17 70,-34 21,-17 41,-44 59,-80 18,-36 32,-78 41,-126 10,-51 12,-100 7,-147 -5,-47 -20,-85 -42,-113 -23,-28 -55,-50 -98,-66 -43,-16 -104,-31 -182,-46l-216 -42c-37,-7 -87,-16 -151,-27 -64,-11 -101,-15 -112,-13 -10,3 -19,9 -27,20 -7,11 -16,43 -28,97l-7 5 -33 -6 -5 -7c17,-68 30,-122 38,-164 7,-35 16,-90 26,-165l7 -5 33 6 5 8c-8,44 -11,72 -11,86 0,14 2,23 6,30 4,6 11,12 22,16 10,5 41,12 91,23l158 32 213 41c85,16 152,33 199,48 48,16 85,38 112,67 27,29 49,60 64,95 15,35 24,78 26,128 2,50 -2,102 -13,154 -13,65 -31,121 -55,168 -24,47 -51,83 -81,107 -29,24 -59,40 -88,47 -29,7 -61,10 -98,6 -37,-3 -92,-12 -165,-26l-269 -52 -137 -25c-53,-10 -88,-15 -104,-16 -16,-1 -27,1 -33,4 -6,4 -12,11 -18,23 -6,12 -14,42 -26,91l-6 5 -35 -7zm600 -2074l9 -4c38,20 106,50 206,89l3 7 -13 31 -8 3 -64 -17c-34,-10 -55,-15 -63,-16 -8,-1 -15,0 -20,3 -5,3 -14,16 -26,39 -12,23 -24,50 -36,79l-50 124c98,44 155,68 171,75l386 155 130 50c50,20 83,32 99,35 16,4 27,5 33,3 6,-2 13,-9 21,-19 8,-11 23,-39 44,-85l6 -3 33 13 3 7c-49,111 -76,173 -82,186 -6,14 -29,77 -71,189l-7 3 -33 -13 -2 -7c15,-42 24,-70 27,-85 3,-14 3,-25 1,-31 -2,-6 -10,-14 -22,-22 -12,-9 -42,-23 -90,-41l-139 -57 -386 -155c-7,-3 -65,-24 -175,-64l-40 98c-16,40 -30,75 -40,106 -10,30 -13,49 -7,56 5,8 27,21 66,41l58 31 4 8 -12 30 -7 3c-107,-42 -177,-68 -211,-77l-4 -8c35,-75 88,-201 160,-378 74,-181 124,-309 150,-383zm873 -1273l9 -1c30,30 87,78 170,145l1 8 -21 26 -8 1 -56 -35c-30,-19 -48,-30 -56,-34 -7,-3 -14,-4 -20,-3 -6,1 -18,12 -36,30 -18,19 -38,40 -58,65l-85 104c81,70 128,111 141,121l324 260 109 86c42,33 70,54 84,62 14,8 24,12 31,12 7,-1 15,-4 26,-12 11,-8 33,-31 67,-69l6 -1 28 22 1 7c-80,92 -124,143 -133,154 -10,12 -51,65 -124,160l-8 1 -28 -22 0 -7c27,-36 43,-60 51,-73 7,-13 10,-23 10,-30 0,-7 -5,-16 -15,-28 -9,-12 -34,-34 -74,-66l-116 -95 -324 -260c-6,-5 -55,-42 -149,-112l-67 82c-28,34 -51,64 -69,89 -19,26 -26,43 -23,52 3,9 20,28 51,59l47 47 1 9 -21 25 -8 1c-90,-71 -149,-116 -178,-135l-1 -9c55,-61 143,-166 265,-315 124,-152 209,-259 256,-323zm155 -166l1 -8c121,-108 199,-178 232,-209 114,-106 215,-201 302,-285l6 1c22,41 65,99 127,174l1 7 -26 24 -9 0c-3,-3 -5,-6 -7,-9 -28,-29 -56,-55 -86,-78 -31,11 -67,32 -109,65 -42,33 -72,58 -92,77 -27,25 -61,60 -100,103l76 85 88 96 97 107c40,-33 75,-64 107,-93 32,-30 58,-56 77,-78 20,-22 30,-36 32,-41 1,-6 0,-13 -4,-21 -4,-8 -13,-21 -27,-39l-28 -34 0 -8 24 -22 8 0c35,38 69,77 104,116l112 114 -1 8 -24 22 -8 0 -33 -28c-26,-21 -42,-34 -48,-37 -6,-3 -13,-4 -21,-3 -8,1 -24,10 -47,28 -23,17 -52,43 -89,77 -20,19 -50,48 -90,88 25,31 70,80 134,147 68,72 119,125 153,158l96 -89c85,-78 136,-128 156,-150 19,-22 35,-45 46,-71 -4,-11 -16,-34 -36,-70 -20,-36 -33,-57 -39,-66l2 -8 25 -23 7 0c11,18 32,47 64,86 32,40 60,73 85,99l0 7c-68,60 -156,139 -264,238l-143 130c-33,31 -66,64 -100,100l-8 0 -16 -17 -1 -9c11,-29 17,-47 17,-52 1,-5 -25,-38 -78,-97 -52,-60 -93,-105 -121,-135l-179 -190 -111 -117c-24,-26 -44,-46 -60,-61 -16,-16 -28,-26 -36,-31 -8,-5 -15,-8 -20,-9 -5,-1 -11,0 -18,3 -7,3 -17,9 -30,19l-43 34 -8 0 -24 -26zm1302 -475c52,-151 88,-263 109,-334 21,-72 38,-130 51,-177 14,-46 21,-76 22,-88l-22 -40 4 -8c33,-16 68,-34 105,-54 8,-5 41,-23 98,-56l9 2 16 29 -2 8c-39,21 -64,38 -76,50 -12,12 -25,37 -40,74 -15,37 -31,82 -49,133l-125 368 569 138c92,23 142,34 152,35 10,1 27,-4 50,-16l7 3 15 26 -2 7c-25,12 -50,24 -77,39 -15,8 -49,28 -100,58 -58,-15 -109,-28 -152,-40 -44,-12 -227,-55 -550,-132l74 132 68 120c27,47 45,76 54,88 10,13 18,20 24,22 7,2 16,2 29,-1 13,-3 42,-16 87,-38l7 1 17 31 -2 7c-2,1 -39,20 -112,57 -30,15 -53,28 -70,37 -13,7 -72,42 -176,103l-8 -2 -17 -31 3 -7c38,-23 63,-39 74,-49 12,-10 18,-18 21,-24 2,-6 1,-17 -3,-31 -5,-14 -19,-44 -43,-88l-73 -131 -160 -287 -69 -120c-27,-47 -45,-76 -54,-89 -9,-13 -17,-20 -24,-22 -6,-3 -16,-2 -29,1 -13,3 -42,16 -87,39l-8 -2 -17 -31 3 -7 79 -40c52,-26 86,-44 102,-53 14,-8 73,-42 177,-104l7 2 17 31 -2 7c-28,17 -50,30 -64,40 -15,10 -24,20 -29,28 -4,9 -3,22 4,40 7,18 19,42 36,72l78 143 73 130zm952 68l-8 -4 -10 -31 4 -7c28,-9 49,-18 65,-26 16,-8 25,-16 28,-24 3,-8 3,-19 0,-33 -3,-15 -12,-46 -26,-96 -14,-49 -25,-85 -32,-106l-178 -545c-7,-23 -17,-39 -29,-47 -12,-8 -26,-12 -41,-10 -15,2 -41,8 -76,19l-7 -4 -10 -32 3 -8c63,-18 105,-30 124,-36 46,-15 83,-28 112,-40l308 209 448 293c54,36 108,69 162,99l-171 -521c-5,-16 -17,-50 -36,-103 -19,-52 -32,-85 -39,-99 -7,-13 -14,-22 -21,-25 -7,-3 -19,-3 -36,-1 -16,2 -38,8 -65,16l-7 -4 -10 -31 3 -8c37,-10 90,-25 158,-47 62,-20 107,-36 134,-47l8 4 10 31 -4 7c-30,10 -52,19 -68,27 -15,8 -24,16 -26,24 -2,8 -2,19 1,32 3,13 11,45 26,94 14,49 25,85 32,107l105 320 61 185c21,61 41,121 62,182 -25,0 -67,3 -127,10l-67 -41 -202 -129 -648 -422 169 517c7,21 20,57 38,110 19,53 31,84 37,94 6,11 12,17 16,20 5,3 14,5 27,5 13,-1 39,-6 76,-18l7 4 10 32 -4 7c-24,4 -63,15 -116,32 -67,22 -126,42 -176,62zm1111 -842c-5,-71 1,-137 17,-200 16,-63 47,-122 92,-177 45,-56 102,-100 169,-133 67,-34 145,-53 232,-59 162,-11 294,24 396,104 102,81 159,197 169,348 7,106 -9,204 -50,292 -41,88 -104,159 -188,212 -85,53 -181,84 -291,91 -77,5 -150,-2 -217,-24 -67,-21 -125,-56 -175,-103 -49,-48 -87,-104 -112,-170 -25,-65 -40,-126 -44,-181zm145 -57c4,57 18,119 41,184 23,65 55,120 96,164 41,45 86,77 137,97 50,20 107,27 169,23 74,-5 138,-27 193,-64 55,-38 95,-92 120,-165 25,-73 34,-153 28,-240 -7,-95 -30,-180 -70,-254 -40,-74 -92,-127 -158,-157 -65,-30 -137,-43 -214,-38 -115,8 -204,50 -265,127 -61,76 -87,184 -77,324zm1154 -497l6 -4c117,18 184,28 202,30 16,2 84,8 204,19l5 6 -4 35 -6 4c-33,-3 -58,-5 -76,-5 -18,0 -31,2 -40,6 -9,4 -15,16 -20,34 -5,19 -9,45 -14,79l-21 162 -38 311c-10,78 -16,132 -19,163l-12 122 145 18c115,14 187,21 216,22 29,1 57,-3 85,-10 7,-11 17,-37 32,-78 15,-41 23,-65 24,-71l7 -5 35 4 4 6c-6,18 -14,54 -25,108 -11,53 -18,97 -22,130l-6 5c-90,-14 -207,-29 -353,-47l-207 -27c-47,-6 -96,-10 -145,-12l-5 -6 3 -23 7 -6c31,-11 48,-19 52,-21 3,-3 10,-33 20,-90 10,-57 20,-126 30,-206l37 -302 16 -137c6,-53 9,-88 9,-104 0,-16 -2,-26 -6,-32 -4,-6 -12,-11 -24,-16 -12,-5 -43,-11 -93,-19l-5 -6 4 -35zm954 643c26,-66 59,-124 100,-174 41,-50 94,-91 159,-122 65,-31 135,-48 210,-50 75,-2 154,12 236,44 152,58 256,145 314,261 58,116 60,245 5,386 -38,100 -95,181 -170,243 -75,63 -162,100 -261,113 -99,13 -200,0 -302,-39 -72,-27 -134,-65 -186,-112 -51,-47 -90,-103 -114,-167 -24,-64 -34,-131 -29,-201 5,-70 17,-131 37,-182zm155 9c-21,54 -34,115 -41,184 -6,69 -1,132 17,189 18,58 45,106 83,145 37,39 85,70 143,92 69,26 136,34 202,23 66,-11 126,-44 179,-99 54,-55 96,-124 128,-206 35,-89 50,-176 45,-260 -4,-84 -30,-153 -76,-209 -46,-55 -106,-96 -178,-124 -108,-41 -206,-40 -294,3 -88,43 -158,130 -208,261zm1827 1090l-11 18 -7 6 -41 -1c-10,0 -16,1 -19,2 -3,2 -12,13 -27,33 -15,20 -33,46 -52,77 -22,35 -44,74 -65,117l-8 4c-137,-26 -264,-76 -381,-148 -90,-56 -160,-123 -211,-201 -51,-78 -77,-164 -78,-256 -1,-92 28,-184 85,-275 87,-138 204,-219 351,-242 147,-22 298,14 451,109 113,70 203,152 269,246l0 9c-24,22 -68,73 -132,153l-8 1 -28 -17 -2 -8 37 -65c12,-22 18,-35 19,-39 1,-5 0,-12 -4,-22 -4,-10 -16,-31 -39,-62 -22,-31 -46,-59 -73,-84 -26,-25 -57,-48 -92,-69 -74,-46 -149,-71 -225,-76 -76,-5 -147,13 -212,53 -66,40 -121,96 -166,167 -47,74 -74,152 -83,235 -9,83 4,160 40,231 36,72 92,132 169,179 34,21 70,39 109,54 39,15 74,24 104,26 12,-10 30,-35 54,-74l42 -67c20,-32 30,-52 31,-63 1,-10 -6,-22 -20,-35 -14,-13 -47,-37 -100,-70l-2 -9 17 -26 9 -2 36 24c62,41 113,74 153,99 23,14 57,34 103,59l3 9zm532 -329l63 62c41,41 69,68 82,80 12,11 63,56 154,135l1 7 -24 26 -8 0c-25,-22 -44,-38 -59,-49 -15,-11 -26,-17 -36,-19 -10,-2 -22,4 -37,16 -15,12 -34,31 -58,56l-113 118 -225 240 -94 101c-36,39 -59,66 -68,79 -9,13 -14,23 -14,30 0,7 3,16 10,27 7,11 28,35 64,70l1 7 -24 26 -8 0c-2,-2 -32,-31 -89,-88 -24,-24 -43,-42 -57,-55 -11,-10 -62,-55 -153,-134l0 -8 24 -26 7 1c34,28 57,47 70,55 13,8 23,12 29,12 7,0 16,-4 29,-13 12,-9 36,-31 71,-68l103 -109 225 -240 94 -102c37,-40 59,-66 69,-79 9,-13 14,-23 14,-30 1,-7 -3,-16 -10,-27 -7,-11 -29,-34 -64,-70l-1 -8 24 -26 8 0z"/>
  <path class="fil1" d="M2860 11089l-65 -60c-43,-40 -71,-65 -85,-77 -12,-10 -65,-53 -159,-129l-1 -7 23 -27 8 0c26,21 46,36 60,46 15,10 27,16 36,17 10,1 22,-4 36,-17 15,-13 33,-32 56,-58l109 -122 217 -247 91 -105c35,-41 57,-68 65,-81 9,-13 13,-23 13,-30 0,-7 -4,-16 -11,-27 -7,-11 -30,-34 -66,-68l-1 -7 23 -27 8 -1c2,2 33,30 92,85 25,23 44,40 59,53 11,10 64,52 158,129l1 8 -23 27 -7 -1c-35,-27 -59,-45 -71,-52 -13,-8 -23,-11 -30,-11 -7,0 -16,5 -28,14 -12,9 -35,33 -69,70l-99 113 -217 247 -91 105c-35,41 -57,68 -66,81 -9,13 -13,23 -13,30 0,7 4,16 11,27 7,11 30,33 67,68l1 8 -23 27 -8 0zm268 -1072l-1 9 -25 21 -8 -1c-19,-22 -35,-38 -49,-50 -13,-12 -24,-17 -32,-17 -8,1 -19,5 -31,13 -12,8 -39,28 -80,60 -41,32 -70,55 -87,69l-442 368c-19,16 -30,30 -33,44 -3,14 -1,28 6,41 7,13 23,34 46,63l-1 8 -26 21 -9 0c-40,-52 -67,-85 -80,-101 -31,-37 -57,-66 -79,-88l80 -362 107 -522c13,-63 24,-125 32,-186l-424 352c-13,11 -41,35 -82,72 -42,37 -68,61 -78,72 -10,12 -15,21 -15,29 0,8 4,19 13,33 8,14 22,32 39,54l-1 8 -25 21 -9 0c-23,-31 -57,-74 -103,-128 -42,-49 -73,-85 -94,-106l1 -9 25 -21 8 1c21,24 38,41 51,52 13,11 24,16 32,15 8,-1 18,-6 30,-13 11,-8 38,-27 79,-59 41,-32 70,-55 87,-70l260 -216 150 -126c49,-42 97,-83 147,-125 9,23 28,61 57,113l-13 77 -45 234 -152 753 420 -349c17,-14 46,-39 88,-76 42,-37 67,-60 74,-70 8,-10 12,-17 13,-23 1,-6 -1,-15 -6,-27 -5,-12 -20,-33 -45,-63l1 -8 26 -22 8 1c13,21 38,52 73,94 46,54 87,100 124,139zm-992 -829l-8 -3 -16 -31 2 -8c53,-30 85,-49 95,-59 10,-10 17,-28 20,-54 4,-26 1,-57 -6,-93 -8,-36 -20,-70 -37,-103 -23,-44 -52,-80 -87,-108 -35,-27 -73,-43 -116,-46 -42,-4 -83,5 -123,25 -28,14 -50,31 -66,51 -16,20 -26,42 -29,65 -4,23 -3,47 2,72 5,25 15,61 30,108 15,46 26,82 32,108 7,27 10,55 11,84 1,29 -4,56 -13,81 -10,25 -25,48 -46,71 -21,22 -46,41 -75,56 -79,40 -158,45 -237,16 -79,-29 -142,-89 -189,-182 -19,-37 -35,-79 -48,-126 -13,-48 -20,-94 -20,-138l6 -8c44,-10 102,-33 175,-67l8 3 17 33 -2 7c-50,27 -82,44 -94,52 -12,9 -19,36 -20,82 -1,47 10,91 32,134 18,36 43,65 73,89 30,24 65,36 104,36 39,0 75,-8 107,-24 25,-13 45,-29 59,-48 14,-19 23,-40 27,-61 3,-21 2,-43 -2,-66 -5,-23 -18,-64 -37,-122 -28,-80 -43,-141 -45,-182 -2,-41 8,-81 30,-117 22,-37 56,-67 103,-90 90,-46 185,-47 282,-5 98,42 173,116 227,220 45,87 68,171 71,253l-6 8c-29,10 -93,38 -192,85zm-1341 -1247l4 -8c42,-9 114,-30 215,-63l7 4 10 32 -4 7 -60 28c-32,14 -52,24 -59,28 -7,4 -11,9 -13,15 -2,5 0,21 6,46 6,26 14,54 24,84l42 127c104,-29 163,-47 179,-52l396 -128 132 -44c51,-17 84,-29 99,-36 14,-7 23,-13 27,-19 3,-6 5,-15 4,-29 0,-13 -8,-44 -22,-93l3 -6 34 -11 7 3c34,116 53,181 58,194 5,15 27,78 68,190l-4 7 -34 11 -6 -4c-16,-42 -27,-69 -34,-82 -7,-13 -14,-21 -20,-24 -6,-3 -16,-4 -31,-3 -15,1 -47,10 -96,25l-144 45 -396 128c-7,2 -66,23 -176,62l33 100c13,41 26,77 38,106 12,30 22,46 31,48 9,2 35,-1 77,-10l65 -13 8 4 10 31 -4 7c-109,36 -179,61 -211,75l-8 -4c-22,-79 -63,-210 -122,-392 -61,-186 -105,-315 -134,-389zm-34 -205l-13 -88c-8,-58 -14,-95 -17,-113 -3,-16 -17,-82 -41,-199l4 -6 35 -6 6 5c7,32 13,56 17,74 5,17 11,29 17,36 7,7 20,10 39,9 19,-1 46,-4 80,-10l162 -27 326 -57 137 -25c53,-10 87,-17 102,-22 15,-5 25,-10 29,-15 4,-5 7,-15 8,-28 1,-13 -2,-45 -8,-94l3 -6 35 -6 7 4c0,2 6,44 18,124 5,33 9,59 12,78 3,15 16,81 41,199l-4 7 -35 6 -5 -5c-10,-43 -17,-71 -22,-85 -5,-14 -11,-23 -16,-27 -5,-4 -16,-6 -30,-7 -15,0 -48,3 -98,12l-149 26 -326 57 -137 25c-53,10 -88,17 -103,22 -15,5 -25,10 -29,15 -5,5 -7,15 -8,27 -1,13 2,45 9,94l-4 7 -35 6 -6 -5zm-130 -1449l6 -7c43,4 118,5 224,3l6 5 1 33 -6 6 -66 9c-35,4 -57,7 -64,10 -8,2 -14,6 -17,11 -4,5 -6,20 -8,46 -2,26 -3,55 -2,87l2 134c108,2 170,3 187,3l416 -7 139 -4c54,-1 89,-3 105,-6 16,-2 26,-6 31,-10 5,-5 9,-13 12,-26 3,-13 6,-45 7,-95l4 -5 36 -1 6 5c-2,121 -2,189 -2,203 0,15 3,82 9,202l-5 6 -36 1 -4 -6c-3,-44 -6,-74 -9,-88 -3,-14 -7,-24 -12,-29 -4,-5 -14,-9 -29,-12 -15,-3 -48,-4 -99,-3l-151 1 -416 7c-8,0 -70,3 -186,9l2 105c1,44 2,81 5,113 3,32 8,50 16,55 8,5 34,9 77,12l66 6 6 6 1 33 -6 6c-115,3 -190,6 -224,10l-7 -7c2,-82 2,-219 -1,-410 -3,-195 -8,-332 -13,-411zm-12 -273l-4 -6c26,-114 41,-180 45,-198 3,-16 14,-83 33,-201l6 -5 35 7 4 7c-5,32 -9,57 -10,75 -1,18 0,31 3,40 4,9 15,16 33,23 18,6 45,12 78,19l161 32 223 43c74,14 128,23 163,26 35,4 65,3 91,-3 26,-6 49,-17 70,-34 21,-17 41,-44 59,-80 18,-36 32,-78 41,-126 10,-51 12,-100 7,-147 -5,-47 -20,-85 -42,-113 -23,-28 -55,-50 -98,-66 -43,-16 -103,-31 -182,-46l-216 -42c-37,-7 -87,-16 -151,-27 -64,-11 -101,-15 -112,-13 -10,3 -19,9 -27,20 -7,11 -16,43 -28,97l-7 5 -33 -6 -5 -7c17,-68 30,-122 38,-164 7,-35 16,-90 26,-165l7 -5 34 6 5 8c-8,44 -12,72 -11,86 0,14 2,23 6,30 4,6 11,12 22,16 10,5 41,12 91,23l158 32 213 41c85,16 152,33 199,48 48,16 85,38 112,67 27,29 49,60 64,95 15,35 24,78 26,128 2,50 -2,102 -13,154 -13,65 -31,121 -55,168 -24,47 -51,83 -81,107 -29,24 -59,40 -88,48 -29,7 -61,10 -98,6 -37,-3 -92,-12 -165,-26l-269 -52 -137 -25c-53,-10 -88,-15 -104,-16 -16,-1 -27,1 -33,4 -6,4 -12,11 -18,23 -6,12 -14,42 -26,91l-6 5 -35 -7zm600 -2074l9 -4c38,20 107,50 206,89l3 7 -13 31 -8 3 -64 -17c-34,-10 -55,-15 -63,-16 -8,-1 -15,0 -20,3 -5,3 -14,16 -26,39 -12,23 -24,50 -36,79l-51 124c98,44 155,68 171,75l386 155 130 50c50,20 83,32 99,35 16,4 27,5 33,2 6,-2 13,-9 21,-19 8,-10 23,-39 44,-85l6 -3 33 13 3 7c-49,111 -76,173 -82,186 -6,14 -29,77 -71,189l-7 3 -33 -13 -2 -7c15,-42 24,-70 27,-85 3,-14 3,-25 1,-31 -2,-6 -10,-14 -22,-22 -12,-9 -42,-23 -90,-41l-139 -57 -386 -155c-7,-3 -65,-24 -175,-64l-40 98c-16,40 -30,75 -40,106 -10,30 -13,49 -7,56 5,8 27,21 66,41l58 31 4 8 -12 30 -7 3c-107,-42 -177,-68 -211,-77l-4 -8c35,-75 88,-201 160,-378 74,-181 124,-309 150,-383zm873 -1273l9 -1c30,30 87,78 170,145l1 8 -21 26 -8 1 -56 -35c-30,-19 -48,-30 -56,-34 -7,-3 -14,-4 -20,-3 -6,1 -18,12 -36,30 -18,19 -38,40 -58,65l-85 104c81,70 128,111 141,121l324 260 109 86c42,33 70,54 84,62 14,8 24,12 31,12 7,-1 15,-4 26,-12 11,-8 33,-31 67,-69l6 -1 28 22 1 7c-80,92 -124,143 -133,154 -10,12 -51,65 -124,160l-8 1 -28 -22 0 -7c27,-36 43,-60 51,-73 7,-13 10,-23 10,-30 0,-7 -5,-16 -15,-28 -9,-12 -34,-34 -74,-66l-116 -95 -324 -260c-6,-5 -55,-42 -149,-112l-67 82c-28,34 -51,64 -69,89 -19,26 -26,43 -23,52 3,9 20,28 51,59l47 47 1 9 -21 25 -8 1c-90,-71 -149,-116 -178,-135l-1 -9c55,-61 143,-166 265,-315 124,-152 209,-259 256,-323zm155 -166l1 -8c121,-108 199,-178 232,-209 114,-106 215,-201 302,-285l6 1c22,41 65,99 127,174l1 7 -26 24 -9 0c-3,-3 -5,-6 -7,-9 -28,-29 -56,-55 -86,-78 -31,11 -67,32 -109,65 -42,33 -72,58 -92,77 -27,25 -61,60 -100,103l76 85 88 96 97 107c40,-33 75,-64 107,-93 32,-30 58,-56 77,-78 20,-22 30,-36 32,-41 1,-6 0,-13 -4,-21 -4,-8 -13,-21 -27,-39l-28 -34 0 -8 24 -22 8 0c35,38 69,77 104,116l112 114 -1 8 -24 22 -8 0 -33 -28c-26,-21 -42,-34 -48,-37 -6,-3 -13,-4 -21,-3 -8,1 -24,10 -47,28 -23,17 -52,43 -89,77 -20,19 -50,48 -90,88 25,31 70,80 134,147 68,72 119,125 153,158l96 -89c85,-78 136,-128 156,-150 19,-22 35,-45 46,-71 -4,-11 -16,-34 -36,-70 -20,-36 -33,-57 -39,-66l2 -8 25 -23 7 0c11,18 32,47 64,86 32,40 60,73 85,99l0 7c-68,60 -156,139 -264,238l-143 130c-33,31 -66,64 -100,100l-8 0 -16 -17 -1 -9c11,-29 16,-47 17,-52 1,-5 -25,-38 -78,-97 -52,-60 -93,-105 -121,-135l-179 -190 -111 -117c-24,-26 -44,-46 -60,-61 -16,-16 -28,-26 -36,-31 -8,-5 -15,-8 -19,-9 -5,-1 -11,0 -18,3 -7,3 -17,9 -30,19l-43 34 -8 0 -24 -26zm1302 -475c52,-151 88,-263 109,-334 21,-72 38,-130 51,-177 14,-46 21,-76 22,-88l-22 -40 4 -9c33,-16 68,-34 105,-54 8,-5 41,-23 98,-56l9 2 16 29 -2 8c-39,21 -64,38 -76,50 -12,12 -25,37 -40,74 -15,37 -31,82 -49,133l-125 368 569 138c92,23 142,34 152,35 10,1 27,-4 50,-16l7 2 15 26 -2 7c-25,12 -51,24 -77,39 -15,8 -49,28 -100,58 -58,-15 -109,-28 -152,-40 -44,-12 -227,-55 -550,-132l74 132 68 121c27,47 45,76 54,88 10,13 18,20 24,22 7,2 16,2 29,-1 13,-3 42,-16 87,-38l7 1 17 31 -2 7c-2,1 -39,20 -112,57 -30,15 -53,28 -70,37 -13,7 -72,42 -176,103l-8 -2 -17 -31 3 -7c38,-23 63,-39 74,-49 12,-10 18,-18 21,-24 2,-6 1,-17 -3,-31 -5,-14 -19,-44 -43,-88l-73 -131 -160 -287 -69 -120c-27,-47 -45,-76 -54,-89 -9,-13 -17,-20 -24,-22 -6,-3 -16,-2 -29,1 -13,3 -42,16 -87,39l-8 -2 -17 -31 3 -7 79 -40c52,-26 86,-44 102,-53 14,-8 73,-42 177,-104l7 2 17 31 -2 7c-28,17 -50,30 -65,40 -15,10 -24,20 -29,28 -4,9 -3,22 4,40 7,18 19,42 36,72l78 143 73 130zm952 68l-8 -4 -10 -31 4 -7c28,-9 49,-18 65,-26 16,-8 25,-16 28,-24 3,-8 3,-19 0,-33 -3,-15 -12,-46 -26,-96 -14,-49 -25,-85 -32,-106l-178 -545c-7,-23 -17,-39 -29,-47 -12,-8 -26,-12 -41,-10 -15,2 -41,8 -76,19l-7 -4 -10 -32 3 -8c63,-18 105,-30 124,-36 46,-15 83,-28 112,-40l308 209 448 293c54,36 108,69 162,99l-171 -521c-5,-16 -17,-50 -36,-103 -19,-52 -32,-85 -39,-99 -7,-13 -14,-22 -21,-25 -7,-3 -19,-3 -36,-1 -16,2 -38,8 -65,16l-7 -4 -10 -31 3 -8c37,-10 90,-25 158,-47 62,-20 107,-36 134,-47l8 4 10 31 -4 7c-30,10 -52,19 -68,27 -15,8 -24,16 -26,24 -2,8 -2,19 1,32 3,13 11,45 26,94 14,49 25,85 32,107l105 320 62 185c21,61 41,121 62,182 -25,0 -67,3 -127,10l-67 -41 -202 -129 -647 -422 169 517c7,21 19,57 38,110 19,53 31,84 37,94 6,11 12,17 16,20 5,3 14,5 27,5 13,-1 39,-6 76,-18l7 4 10 32 -4 7c-24,4 -63,15 -116,32 -67,22 -126,42 -176,62zm1111 -842c-5,-71 1,-137 17,-200 16,-63 47,-122 92,-177 45,-56 102,-100 169,-133 67,-34 145,-53 232,-59 162,-11 294,24 396,104 102,81 159,197 169,348 7,106 -9,204 -50,292 -41,88 -104,159 -188,212 -85,53 -181,84 -291,91 -77,5 -150,-2 -217,-24 -67,-21 -125,-56 -175,-103 -49,-48 -87,-104 -112,-170 -25,-65 -40,-126 -44,-181zm145 -57c4,57 18,119 41,184 23,65 55,120 96,164 41,45 86,77 137,97 50,20 107,27 169,23 74,-5 138,-27 193,-64 55,-38 95,-92 120,-165 25,-73 34,-153 28,-240 -7,-95 -30,-180 -69,-254 -40,-74 -92,-127 -158,-157 -65,-30 -137,-43 -214,-38 -115,8 -204,50 -265,127 -61,76 -87,184 -77,324zm1154 -497l6 -4c117,18 184,28 202,30 16,2 84,8 204,19l5 6 -4 35 -6 4c-33,-3 -58,-5 -76,-5 -18,0 -31,2 -40,6 -9,4 -15,16 -20,34 -5,19 -9,45 -14,79l-21 162 -38 311c-10,78 -16,132 -19,163l-12 122 145 18c115,14 187,21 216,22 29,1 57,-3 85,-10 7,-11 17,-37 32,-78 15,-41 23,-65 24,-71l7 -5 35 4 4 6c-6,18 -14,54 -25,108 -11,54 -18,97 -22,130l-6 5c-90,-14 -207,-29 -353,-47l-207 -27c-47,-6 -96,-10 -145,-12l-5 -6 3 -23 7 -6c31,-11 48,-19 52,-21 3,-3 10,-33 20,-90 10,-57 20,-126 30,-206l37 -302 16 -137c6,-53 9,-88 9,-104 0,-16 -2,-26 -6,-32 -4,-6 -12,-11 -24,-16 -12,-5 -43,-11 -93,-19l-5 -6 4 -35zm954 643c26,-66 59,-124 100,-174 41,-50 94,-91 159,-122 65,-31 135,-48 210,-50 75,-2 154,12 236,44 152,58 256,145 314,261 58,116 60,245 5,386 -38,100 -95,181 -170,243 -75,63 -162,100 -261,113 -99,13 -200,0 -302,-39 -72,-27 -135,-65 -186,-112 -51,-47 -90,-103 -114,-167 -24,-64 -34,-131 -29,-201 5,-70 17,-131 37,-182zm155 9c-21,54 -34,115 -41,184 -6,69 -1,132 17,189 18,58 45,106 83,145 37,39 85,70 143,92 69,26 136,34 202,23 66,-11 126,-44 179,-99 54,-55 96,-124 128,-206 35,-89 50,-176 45,-260 -4,-84 -30,-153 -76,-209 -46,-55 -106,-96 -178,-124 -108,-41 -206,-40 -294,3 -88,43 -158,130 -208,261zm1827 1090l-11 18 -7 6 -41 -1c-10,0 -16,1 -19,2 -3,2 -12,13 -27,33 -15,20 -33,46 -52,77 -22,35 -44,74 -65,117l-8 4c-137,-26 -264,-76 -381,-148 -90,-56 -160,-123 -211,-201 -51,-78 -77,-164 -78,-256 -1,-92 28,-184 85,-275 87,-138 204,-219 351,-242 147,-22 298,14 451,109 113,70 203,152 269,246l0 9c-24,22 -68,73 -132,153l-8 1 -28 -17 -2 -8 37 -65c12,-22 18,-35 19,-39 1,-5 0,-12 -4,-22 -4,-10 -16,-31 -39,-62 -22,-31 -46,-59 -73,-84 -26,-25 -57,-48 -92,-69 -74,-46 -149,-71 -225,-76 -76,-5 -147,13 -212,53 -66,40 -121,96 -166,167 -47,74 -74,152 -83,235 -9,83 4,160 40,231 36,72 92,132 169,179 33,21 70,39 109,54 39,15 74,24 104,26 12,-10 30,-35 54,-74l42 -67c20,-32 30,-52 31,-63 1,-10 -6,-22 -20,-35 -14,-13 -47,-37 -100,-70l-2 -9 17 -26 9 -2 36 24c62,41 113,74 153,99 23,14 57,34 103,59l3 9zm532 -329l63 62c41,41 69,68 82,80 12,11 63,56 154,135l1 7 -24 26 -8 0c-25,-22 -44,-38 -58,-49 -15,-11 -26,-17 -36,-19 -10,-2 -22,4 -37,16 -15,12 -34,31 -58,56l-113 118 -225 240 -94 101c-36,39 -59,66 -68,79 -9,13 -14,23 -14,30 0,7 3,16 10,27 7,11 28,35 64,70l1 7 -24 26 -8 0c-2,-2 -32,-31 -89,-88 -24,-24 -43,-42 -57,-55 -11,-10 -62,-55 -153,-134l0 -8 24 -26 7 1c34,28 57,47 70,55 13,8 23,12 29,12 7,0 16,-4 29,-13 12,-9 36,-31 71,-68l103 -109 225 -240 94 -102c37,-40 59,-66 69,-79 9,-13 14,-23 14,-30 1,-7 -3,-16 -10,-27 -7,-11 -29,-34 -64,-70l-1 -8 24 -26 8 0z"/>
  <path class="fil1" d="M11048 2885l1 -7 29 -21 7 1c45,68 80,119 106,155 10,13 50,65 121,155 23,29 39,51 49,64 38,52 62,96 74,134 12,38 11,75 -2,113 -13,37 -36,68 -70,92 -43,31 -94,44 -152,40 -59,-4 -122,-35 -188,-92 27,44 46,82 58,114 12,32 18,63 17,94 -1,30 -9,60 -26,89 -16,29 -40,55 -72,77 -25,18 -53,33 -85,44 -32,11 -67,15 -108,13 -40,-2 -80,-11 -120,-27 -39,-16 -74,-36 -105,-61 -30,-24 -62,-59 -95,-104 -7,-9 -26,-37 -58,-85 -36,-52 -56,-80 -59,-84 -19,-26 -44,-57 -75,-92l1 -8 19 -14 9 1c26,15 42,23 49,23 7,1 43,-21 109,-65 66,-44 116,-79 150,-103l212 -153 131 -95c29,-21 52,-38 69,-51 17,-14 30,-24 36,-31 7,-7 11,-13 11,-18 1,-5 0,-12 -2,-19 -2,-7 -7,-18 -15,-32l-29 -46zm-153 425c12,20 27,42 45,66 58,79 113,124 164,134 51,10 102,-2 151,-38 29,-21 49,-44 61,-71 12,-27 14,-56 6,-90 -8,-33 -28,-71 -60,-115 -26,-36 -52,-65 -77,-88 -37,21 -99,63 -185,125l-104 75zm-420 305c15,34 33,67 56,98 40,55 80,91 120,109 40,18 82,23 124,15 42,-8 82,-25 119,-52 55,-40 88,-87 99,-143 11,-55 -22,-135 -98,-238 -13,-17 -29,-37 -48,-60l-197 142 -176 128zm328 554l3 -8 34 -14 8 4c13,32 23,52 30,60 6,8 16,14 27,18 12,4 46,7 102,10l179 9 481 15c94,2 187,3 281,4l17 43 -551 547 -73 73c-21,21 -43,45 -67,71 -24,26 -37,43 -40,50 -3,8 -4,16 -4,25 0,9 6,28 17,56l-3 7 -34 14 -7 -3c-15,-48 -30,-91 -45,-128 -32,-72 -63,-144 -95,-216l3 -8 34 -14 8 3c21,48 35,78 44,89 8,11 18,14 30,9 10,-4 21,-12 35,-25l169 -162 -155 -380 -199 -4c-36,-1 -60,2 -75,8 -11,4 -17,14 -17,27 -1,14 9,45 28,93l-3 8 -34 14 -7 -3c-20,-58 -38,-108 -55,-150 -20,-48 -41,-96 -65,-144zm493 151l135 332 332 -325 -468 -7zm-63 924l6 -7 33 -5 6 6c5,29 10,51 15,68 5,17 11,27 19,31 7,4 18,6 33,5 15,0 48,-3 100,-9 52,-6 88,-10 111,-13l571 -80c24,-3 41,-10 52,-20 10,-10 16,-23 17,-38 1,-15 -1,-41 -6,-77l5 -6 33 -5 7 5c7,65 12,107 14,127 7,47 13,86 20,116l-261 264 -369 387c-45,47 -87,94 -126,141l547 -76c17,-2 53,-8 108,-18 55,-9 90,-16 104,-21 15,-4 24,-10 28,-16 4,-7 7,-18 7,-35 0,-16 -1,-39 -5,-66l5 -6 33 -5 7 5c3,38 9,93 19,163 9,64 17,110 23,139l-5 7 -33 5 -7 -5c-5,-31 -10,-55 -15,-71 -5,-16 -12,-26 -20,-29 -8,-3 -18,-5 -32,-5 -14,1 -47,3 -98,9 -52,6 -89,10 -111,13l-336 47 -195 28c-64,10 -127,19 -191,29 5,-24 9,-66 13,-125l52 -58 163 -175 532 -559 -543 75c-22,3 -60,9 -116,19 -56,9 -89,16 -100,20 -12,4 -19,8 -23,12 -4,4 -7,13 -9,26 -2,13 0,39 5,78l-5 7 -33 5 -7 -5c0,-25 -4,-64 -12,-118 -10,-70 -20,-130 -31,-183zm1161 1234l5 6c-10,81 -16,137 -18,166l-16 331c-7,94 -21,171 -43,230 -22,59 -57,110 -104,154 -47,44 -101,76 -161,96 -60,20 -123,28 -189,24 -64,-4 -127,-20 -188,-46 -61,-27 -115,-62 -162,-106 -47,-44 -84,-94 -110,-148 -27,-54 -43,-108 -50,-161 -7,-53 -8,-107 -4,-161 3,-37 9,-106 19,-208 3,-33 5,-55 6,-66 2,-33 3,-72 3,-118l6 -5 24 2 7 6c12,29 20,45 23,49 3,4 44,11 124,19 79,8 140,14 182,17l261 18 162 10c35,3 64,4 86,5 22,1 38,0 48,-2 10,-2 17,-4 20,-7 4,-3 8,-8 11,-14 3,-7 6,-18 9,-34l8 -54 6 -5 36 2zm-948 197c-13,47 -22,102 -26,165 -8,110 5,199 37,267 32,68 84,121 154,159 70,37 151,59 242,66 135,9 241,-19 320,-85 79,-66 124,-175 135,-328 4,-63 4,-124 -1,-183 -78,-9 -165,-17 -263,-24l-224 -16 -209 -13c-41,-3 -96,-5 -165,-7zm800 1172l3 7c-40,110 -63,174 -69,191 -5,15 -24,80 -58,195l-7 4 -34 -11 -3 -7c9,-31 16,-56 20,-73 4,-17 4,-31 2,-40 -3,-9 -13,-18 -30,-26 -18,-8 -43,-18 -75,-28l-156 -52 -216 -70c-71,-23 -124,-38 -158,-46 -34,-8 -64,-10 -90,-8 -26,2 -50,11 -74,25 -23,14 -46,38 -68,72 -23,33 -41,74 -57,120 -16,49 -25,98 -25,145 0,47 9,86 28,117 19,31 49,57 89,78 41,21 99,43 175,68l209 68c35,11 84,27 146,45 62,19 99,27 109,26 11,-1 20,-7 29,-17 8,-10 22,-41 40,-93l7 -4 32 10 4 7c-26,65 -45,118 -58,158 -11,34 -27,88 -46,161l-8 4 -32 -10 -4 -8c13,-42 20,-71 22,-84 2,-13 1,-24 -2,-30 -3,-7 -10,-13 -19,-19 -10,-6 -39,-17 -88,-34l-152 -51 -206 -66c-83,-27 -146,-51 -192,-72 -45,-22 -80,-48 -103,-80 -24,-32 -41,-66 -52,-102 -11,-37 -14,-80 -10,-130 4,-50 15,-101 31,-151 21,-63 46,-116 75,-160 30,-44 61,-76 93,-96 32,-20 63,-33 93,-36 29,-4 62,-2 98,5 36,8 89,23 160,46l261 84 133 41c52,16 85,26 101,29 16,3 27,3 33,0 7,-3 13,-9 20,-21 7,-11 19,-40 37,-87l7 -4 34 11zm-1332 783l9 -2 28 17 1 8c-15,25 -26,45 -33,61 -7,16 -9,28 -6,36 3,8 10,16 22,25 12,9 39,28 82,57 43,29 74,49 93,61l489 303c21,13 38,19 53,17 14,-1 27,-7 38,-19 11,-11 26,-32 46,-63l8 -2 29 18 2 8c-37,54 -61,89 -72,107 -26,41 -46,75 -60,102l-372 36 -534 61c-65,7 -127,16 -188,28l469 290c15,9 46,28 94,56 48,28 79,45 93,51 14,6 25,8 32,6 8,-2 17,-10 28,-22 11,-12 24,-30 39,-54l8 -2 28 17 2 8c-22,31 -53,77 -91,137 -35,55 -59,95 -72,121l-9 2 -28 -17 -2 -8c16,-27 28,-48 34,-64 7,-16 8,-28 4,-35 -4,-7 -11,-15 -22,-24 -11,-8 -38,-27 -81,-56 -43,-29 -74,-49 -94,-61l-288 -178 -167 -103c-55,-33 -110,-66 -166,-100 19,-16 50,-45 91,-88l78 -11 238 -30 770 -89 -465 -288c-19,-12 -52,-31 -101,-59 -49,-28 -78,-44 -90,-49 -11,-4 -20,-6 -26,-5 -6,1 -14,6 -24,14 -10,9 -26,30 -47,63l-8 2 -29 -18 -2 -8c16,-19 39,-52 68,-98 38,-60 69,-113 95,-160zm-1127 1994l-15 -15 -4 -8 11 -39c2,-10 3,-16 2,-19 -1,-3 -10,-14 -26,-34 -16,-20 -37,-43 -63,-69 -29,-30 -62,-60 -99,-91l-2 -8c59,-125 138,-236 237,-330 76,-73 159,-124 248,-155 89,-30 179,-34 269,-13 91,21 173,71 248,148 114,117 165,250 152,396 -14,147 -86,283 -216,408 -96,92 -198,158 -306,199l-9 -2c-16,-29 -55,-83 -118,-164l1 -8 24 -23 8 0 55 51c18,17 29,26 34,28 4,2 12,2 23,1 11,-1 34,-8 70,-22 36,-14 69,-31 99,-50 31,-19 60,-43 90,-72 63,-60 106,-126 129,-198 23,-72 23,-145 -1,-217 -24,-73 -65,-140 -124,-200 -61,-63 -131,-108 -210,-137 -79,-29 -158,-35 -236,-17 -79,17 -151,57 -216,119 -28,27 -55,58 -79,92 -24,34 -41,65 -50,94 8,14 27,37 60,70l55 57c26,27 44,42 54,45 10,3 23,0 39,-10 16,-10 47,-37 93,-79l9 0 22 23 0 9 -32 29c-56,50 -100,91 -134,123 -19,19 -47,47 -83,85l-9 1z"/>
  <path class="fil2" d="M3561 10970c109,0 198,87 198,194 0,107 -89,194 -198,194 -109,0 -198,-87 -198,-194 0,-107 89,-194 198,-194z"/>
  <path class="fil2" d="M9351 10970c109,0 198,87 198,194 0,107 -88,194 -198,194 -109,0 -198,-87 -198,-194 0,-107 89,-194 198,-194z"/>
  <path class="fil3" d="M6523 2301c2305,0 4175,1870 4175,4175 0,2305 -1870,4175 -4175,4175 -2306,0 -4175,-1870 -4175,-4175 0,-2306 1870,-4175 4175,-4175zm1141 1166c200,0 367,102 487,235 124,128 189,352 144,544 -133,-118 -307,-127 -472,-70l72 102 131 -87c30,51 78,78 68,147 94,-37 198,51 150,119 107,-34 134,55 123,90 59,-4 113,43 98,108 69,-14 88,46 77,113 -66,160 -146,294 -370,351l123 59c-70,185 -195,344 -335,396 284,263 456,591 468,1133 4,195 -53,559 -241,703 221,60 444,290 437,595 -2,97 -28,199 -76,314 -129,302 -455,327 -712,281 -275,-47 -495,-197 -760,-87 -98,56 -216,161 -349,84 -118,-81 -146,-132 -194,-256 -49,120 -82,164 -189,243 -124,94 -284,5 -358,-71 -287,-208 -594,84 -870,101 -512,63 -694,-259 -691,-587 1,-286 142,-579 437,-582 -88,-101 -191,-244 -224,-454 -95,-571 -33,-928 492,-1449 -113,-49 -256,-149 -361,-379 183,-109 208,-166 211,-179 -169,-150 -252,-384 -200,-616 15,-63 43,-102 87,-142 31,-14 92,-31 113,15 48,-58 133,-60 170,-4 47,-57 121,-51 167,12 21,-63 162,-78 164,72 34,-82 153,-105 218,-97 -13,33 -31,55 -29,109 5,96 -1,186 4,275l74 0c10,-281 92,-517 474,-688 100,-44 209,-62 322,-133 109,66 218,82 317,133 419,219 465,386 475,684l256 25c-14,-82 19,-110 116,-193l-411 -495 182 -150 158 162c65,-73 109,-231 78,-340 -7,-43 -4,-91 -49,-144zm-1892 2927c47,0 86,-38 86,-84 0,-46 -39,-85 -86,-85 -47,0 -87,39 -87,85 0,46 40,84 87,84zm530 -1473c54,12 89,92 84,141 -94,6 -200,6 -264,-25 -37,-26 -65,-84 -64,-124 64,0 206,-3 244,8zm486 0c-54,12 -91,92 -85,141 93,6 200,6 264,-25 37,-26 65,-84 63,-124 -63,0 -206,-3 -242,8zm464 1262c-20,45 -146,142 -192,174 -65,-12 -95,-15 -150,-47 81,-35 150,-109 186,-171 39,27 103,38 156,44zm-218 -70c-57,76 -135,129 -198,165 -158,-79 -76,-408 -72,-462 82,147 189,242 270,297zm-113 -482c88,178 180,341 296,496 -165,-9 -364,-269 -408,-392 -11,-34 58,-107 112,-104zm-737 89l-159 168 -83 -55 151 -257c43,20 92,70 92,143zm2145 804c27,488 -71,843 -522,1018 -201,77 -459,-76 -519,-239 27,-5 78,-1 103,-40 64,72 135,75 210,10 105,76 185,37 218,0 46,40 127,63 192,23 80,-32 134,-191 34,-265 67,-45 46,-158 66,-213l-426 -2c0,-287 24,-633 -81,-756l-21 686c-45,-213 -237,-331 -410,-365 164,-95 450,-616 445,-900 491,232 689,655 711,1046zm-805 -1067c31,249 -166,565 -235,679 -28,-29 -66,-88 -91,-143 109,-138 199,-363 214,-565l112 30zm-333 -76l121 28c0,147 -72,408 -158,519 -46,-101 -141,-244 -168,-363l203 -185c0,0 2,0 2,0zm-1309 -14c55,71 89,89 142,128l-194 359 206 120 161 -159c4,492 49,605 175,704 -271,111 -541,338 -737,569l7 -512c-54,-19 -148,4 -176,50l10 -582c-118,165 -93,418 -100,545l-316 1 0 173c-46,14 -94,-1 -127,46 -63,74 -40,143 15,172 -92,31 -55,160 -5,173 -77,8 -45,95 -30,135 -176,-218 -195,-502 -194,-796 35,-341 244,-697 577,-925 202,-116 360,-167 588,-200zm1797 -540c141,156 337,302 474,357 104,81 -103,234 -285,302 -218,-109 -345,-159 -591,-228 76,-146 87,-338 69,-530 128,-2 240,-5 333,98zm-1944 -91c18,155 -19,342 86,523 -241,64 -432,103 -583,223 -119,0 -426,-263 -334,-312 158,-72 311,-264 468,-347 157,-84 238,-89 363,-87zm807 -167l90 89 -90 91 -92 -91 92 -89zm1904 240c-29,55 -59,70 -115,97 -54,21 -95,-31 -61,-61l139 -110c49,-34 83,1 37,74zm-77 -110l-141 108c-47,38 -104,-26 -59,-65l151 -117c49,-26 97,27 49,75zm-204 -216l-141 108c-48,39 -105,-26 -59,-65l151 -116c49,-27 97,27 49,73zm105 108l-141 109c-48,37 -105,-27 -59,-66l151 -116c49,-26 97,27 49,73zm-399 -25c-13,58 27,126 110,101 -41,88 71,133 110,115 -23,59 41,140 106,103 -12,71 41,66 89,78 -37,40 -169,74 -224,58 -122,-60 -216,-208 -309,-286 -33,-49 -43,-111 -21,-165 92,-85 162,-169 257,-230 36,114 -97,131 -118,225zm-2324 -223l18 264c-161,0 -401,206 -506,301 -136,-66 -195,-251 -204,-345 29,41 41,21 60,26 42,-14 54,-24 72,-61 11,37 13,56 71,61 31,-11 74,-11 83,-57 12,44 19,52 71,54 34,-4 66,-14 77,-63 17,40 37,58 94,63 33,-9 69,-33 76,-69 14,-78 18,-131 83,-178 0,0 2,2 2,2zm-123 -5l-1 143c-14,71 -83,74 -101,-6l0 -136c4,-76 93,-69 103,-1zm-154 0l0 143c-16,71 -83,74 -103,-6l0 -136c5,-76 94,-69 103,-1zm-156 0l-1 143c-16,71 -83,74 -103,-6l0 -136c5,-76 94,-69 104,-1zm-162 -2l0 159c-16,55 -76,45 -93,-7 -6,-75 2,-72 15,-139 12,-62 59,-78 78,-13zm1904 -300c159,173 163,313 162,571l201 0c-16,-334 -55,-427 -363,-571zm-615 0c-160,173 -164,313 -162,571l-202 0c16,-334 54,-427 363,-571zm368 -102c0,316 -11,508 51,614 30,35 58,47 107,59l128 0c-7,-429 -88,-551 -286,-673zm-122 0c0,316 11,508 -49,614 -31,35 -58,47 -107,59l-128 0c7,-429 88,-551 285,-673zm1740 164c-99,-57 -339,-100 -543,50l136 180 -58 53 -350 -428 60 -47 153 171c164,-133 204,-281 187,-469 142,43 380,169 414,490zm-1689 5213c-105,-124 -194,-165 -460,-191 -255,-25 -729,-12 -1040,-21 -223,-7 -368,-82 -392,-314 170,133 553,65 924,64 425,-2 859,-34 968,180 107,-214 542,-182 967,-180 372,1 755,69 925,-64 -24,232 -170,307 -393,314 -311,9 -786,-4 -1040,21 -265,26 -355,66 -459,191zm0 174c-147,-410 -1211,-167 -1538,-248 -463,-115 -416,-386 -480,-659 286,295 713,142 1144,142 317,0 729,-47 875,128 145,-175 556,-128 874,-128 431,0 798,154 1118,-142 -29,248 -2,597 -455,659 -334,45 -1391,-162 -1537,248zm173 -1820c-12,41 -16,86 25,120 -57,56 -41,133 5,190 -54,51 -51,155 1,200 -52,45 -58,132 6,193 -29,27 -34,63 -34,99 -104,-128 -111,-338 -111,-409 0,-45 -4,-282 107,-393zm-366 1c12,42 14,85 -25,118 56,56 40,133 -6,190 54,51 52,155 -1,200 53,45 59,132 -5,193 29,27 43,62 43,98 104,-128 101,-336 101,-408 0,-44 4,-280 -107,-392zm1599 -423c47,0 86,-38 86,-84 0,-46 -39,-85 -86,-85 -47,0 -87,39 -87,85 0,46 40,84 87,84zm-223 0c47,0 87,-38 87,-84 0,-46 -40,-85 -87,-85 -47,0 -86,39 -86,85 0,46 39,84 86,84zm-221 0c47,0 86,-38 86,-84 0,-46 -39,-85 -86,-85 -47,0 -87,39 -87,85 0,46 40,84 87,84zm-229 0c47,0 87,-38 87,-84 0,-46 -40,-85 -87,-85 -47,0 -86,39 -86,85 0,46 39,84 86,84zm-728 54c47,0 87,-38 87,-84 0,-46 -40,-85 -87,-85 -47,0 -86,39 -86,85 0,46 39,84 86,84zm-334 462c47,0 87,-38 87,-84 0,-46 -40,-84 -87,-84 -47,0 -84,38 -84,84 0,46 37,84 84,84zm653 2c47,0 86,-38 86,-84 0,-46 -39,-84 -86,-84 -47,0 -86,38 -86,84 0,46 39,84 86,84zm-653 190c47,0 87,-37 87,-83 0,-46 -40,-84 -87,-84 -47,0 -84,38 -84,84 0,46 37,83 84,83zm653 7c47,0 86,-38 86,-84 0,-46 -39,-84 -86,-84 -47,0 -86,38 -86,84 0,46 39,84 86,84zm-653 200c47,0 87,-39 87,-85 0,-46 -40,-83 -87,-83 -47,0 -84,37 -84,83 0,46 37,85 84,85zm653 -4c47,0 86,-38 86,-84 0,-46 -39,-84 -86,-84 -47,0 -86,38 -86,84 0,46 39,84 86,84zm-653 204c47,0 87,-38 87,-84 0,-46 -40,-84 -87,-84 -47,0 -84,38 -84,84 0,46 37,84 84,84zm653 -5c47,0 86,-38 86,-84 0,-46 -39,-84 -86,-84 -47,0 -86,38 -86,84 0,46 39,84 86,84zm-652 187c41,0 75,-34 75,-75 0,-40 -34,-75 -75,-75 -41,0 -76,34 -76,75 0,40 35,75 76,75zm650 -5c42,0 76,-33 76,-75 0,-42 -34,-73 -76,-73 -42,0 -76,32 -76,73 0,42 34,75 76,75zm-1168 -4356c47,0 87,-38 87,-84 0,-46 -40,-85 -87,-85 -47,0 -86,39 -86,85 0,46 39,84 86,84zm-11 -215c47,0 86,-39 86,-85 0,-46 -39,-84 -86,-84 -47,0 -87,38 -87,84 0,46 40,85 87,85zm-113 -205c47,0 87,-38 87,-84 0,-46 -40,-85 -87,-85 -47,0 -86,39 -86,85 0,46 39,84 86,84zm-201 -95c47,0 87,-39 87,-85 0,-46 -40,-84 -87,-84 -47,0 -86,38 -86,84 0,46 39,85 86,85zm-250 -10c47,0 87,-38 87,-84 0,-46 -40,-85 -87,-85 -47,0 -86,39 -86,85 0,46 39,84 86,84zm-204 129c47,0 86,-39 86,-85 0,-46 -39,-84 -86,-84 -47,0 -87,38 -87,84 0,46 40,85 87,85zm-128 192c47,0 87,-39 87,-85 0,-46 -40,-84 -87,-84 -47,0 -86,38 -86,84 0,46 39,85 86,85zm13 224c47,0 86,-38 86,-84 0,-46 -39,-85 -86,-85 -47,0 -87,39 -87,85 0,46 40,84 87,84zm501 3366l0 197c-87,-71 -99,-100 -116,-194l116 -2zm2811 -85c503,62 553,905 6,1025 -374,57 -722,-312 -1112,-69 8,-25 -21,-56 -42,-66 64,-60 66,-146 8,-199 59,-41 65,-153 4,-206 60,-51 54,-146 4,-190 17,-12 42,-21 48,-59 107,133 401,125 676,-65 186,-5 337,-84 409,-171zm-3043 73c37,156 170,290 319,338l1 -218c169,99 461,163 656,40 2,27 24,47 52,61 -68,57 -57,135 0,191 -60,41 -55,158 4,199 -59,49 -81,152 7,212 -25,6 -49,26 -48,72 -414,-374 -863,188 -1300,10 -390,-217 -217,-1104 309,-904zm205 -212c110,-13 83,124 5,111l-220 0c-87,9 -122,-116 -8,-111l223 0zm8 -167c110,-12 83,126 5,113l-220 0c-87,8 -122,-116 -9,-113l223 0zm0 -164c110,-12 83,126 5,113l-220 0c-87,8 -122,-116 -9,-113l223 0zm0 -167c110,-12 83,124 5,113l-220 0c-87,8 -122,-116 -9,-113l223 0zm2697 81c10,15 -4,50 -16,66 -58,-6 -104,-4 -134,53 -28,-53 -174,-59 -220,0 -65,-61 -169,-68 -215,11 -27,-32 -60,-56 -101,-57 -24,-13 -29,-50 -30,-73l716 0zm-1257 -271c93,50 405,90 431,196l18 156c-33,32 -68,88 -68,149 31,209 228,390 381,469 -95,63 -286,115 -398,0 -75,-101 -251,-145 -340,-82 -147,102 -169,128 -211,274 -30,-105 -87,-256 -204,-277 -83,-49 -209,-32 -335,75 -92,77 -168,64 -250,46 8,-77 30,-278 80,-355 185,-311 577,-496 897,-651zm-1173 65c-25,235 98,468 -139,732 36,-74 7,-124 -36,-139 63,-43 82,-121 17,-167 51,-33 53,-135 -2,-165 72,-59 16,-166 93,-218 23,-26 41,-39 65,-44 0,0 2,0 2,0zm906 -153l125 55c-187,99 -374,188 -533,325 -227,165 -395,557 -431,701 -46,4 -78,-18 -119,-52 11,-379 397,-751 638,-882 104,-58 200,-108 320,-147zm-1301 90l145 0 0 90 -145 0 0 -90zm1094 -1923c222,0 296,105 296,167 0,-62 82,-167 310,-167l362 0c25,132 10,290 -39,440 -92,175 -281,258 -419,408 -133,185 -110,556 -70,653 57,140 268,216 398,217 130,1 424,82 422,360l-259 -1c-68,-219 -632,-146 -894,-479 -110,-221 2,-501 -78,-729 -104,-191 -209,-130 -351,-428 -53,-105 -75,-261 -53,-441l375 0z"/>
  <path class="fil0" d="M7664 3468c200,0 367,102 487,235 124,128 189,352 144,544 -133,-118 -307,-127 -472,-70l72 102 131 -87c30,51 78,78 68,147 94,-37 198,51 150,119 107,-34 134,55 123,90 59,-4 113,43 98,108 69,-14 88,46 77,113 -66,160 -146,294 -370,351l123 59c-70,185 -195,344 -335,396 284,263 456,591 468,1133 4,195 -53,559 -241,703 221,60 444,290 437,595 -2,97 -28,199 -76,314 -129,302 -455,327 -712,281 -275,-47 -495,-197 -760,-87 -98,56 -216,161 -349,84 -118,-81 -146,-132 -194,-256 -49,120 -82,164 -189,243 -124,94 -284,5 -358,-71 -287,-208 -594,84 -870,101 -512,63 -694,-259 -691,-587 1,-286 142,-579 437,-582 -88,-101 -191,-244 -224,-454 -95,-571 -33,-928 492,-1449 -113,-49 -256,-149 -361,-379 183,-109 208,-166 211,-179 -169,-150 -252,-384 -200,-616 15,-63 43,-102 87,-142 31,-14 92,-31 113,15 48,-58 133,-60 170,-4 47,-57 121,-51 167,12 21,-63 162,-78 164,72 34,-82 153,-105 218,-97 -13,33 -31,55 -29,109 5,96 -1,186 4,275l74 0c10,-281 92,-517 474,-688 100,-44 209,-62 322,-133 109,66 218,82 317,133 419,219 465,386 475,684l256 25c-14,-82 19,-110 116,-193l-411 -495 182 -150 158 162c65,-73 109,-231 78,-340 -7,-43 -4,-91 -49,-144zm-1892 2927c47,0 86,-38 86,-84 0,-46 -39,-85 -86,-85 -47,0 -87,39 -87,85 0,46 40,84 87,84zm530 -1473c54,12 89,92 84,141 -94,6 -200,6 -264,-25 -37,-26 -65,-84 -64,-124 64,0 206,-3 244,8zm486 0c-54,12 -91,92 -85,141 93,6 200,6 264,-25 37,-26 65,-84 63,-124 -63,0 -206,-3 -242,8zm464 1262c-20,45 -146,142 -192,174 -65,-12 -95,-15 -150,-47 81,-35 150,-109 186,-171 39,27 103,38 156,44zm-218 -70c-57,76 -135,129 -198,165 -158,-79 -76,-408 -72,-462 82,147 189,242 270,297zm-113 -482c88,178 180,341 296,496 -165,-9 -364,-269 -408,-392 -11,-34 58,-107 112,-104zm-737 89l-159 168 -83 -55 151 -257c43,20 92,70 92,143zm2145 804c27,488 -71,843 -522,1018 -201,77 -459,-76 -519,-239 27,-5 78,-1 103,-40 64,72 135,75 210,10 105,76 185,37 218,0 46,40 127,63 192,23 80,-32 134,-191 34,-265 68,-45 46,-158 66,-213l-426 -2c0,-287 24,-633 -81,-756l-21 686c-45,-213 -237,-331 -410,-365 164,-95 450,-616 445,-900 491,232 689,655 711,1046zm-805 -1067c31,249 -166,565 -235,679 -28,-29 -66,-88 -91,-143 109,-138 199,-363 214,-565l112 30zm-333 -76l121 28c0,147 -72,408 -158,519 -46,-101 -141,-244 -168,-363l203 -185c0,0 2,0 2,0zm-1309 -14c55,71 89,89 142,128l-194 359 206 120 161 -159c4,492 49,605 175,704 -271,111 -541,338 -737,569l7 -512c-54,-19 -148,4 -176,50l10 -582c-118,165 -93,418 -100,545l-316 1 0 173c-46,14 -94,-1 -127,46 -63,74 -40,143 15,172 -92,31 -55,160 -5,173 -77,8 -45,95 -30,135 -176,-218 -195,-502 -194,-796 35,-341 244,-697 577,-925 201,-116 360,-167 588,-200zm1797 -540c141,156 337,302 474,357 104,81 -103,234 -285,302 -218,-109 -345,-159 -591,-228 76,-146 87,-338 69,-530 128,-2 240,-5 333,98zm-1944 -91c18,155 -19,343 86,523 -241,64 -432,103 -583,223 -119,0 -426,-263 -334,-312 158,-72 311,-264 468,-347 157,-84 238,-89 363,-87zm807 -167l90 89 -90 91 -92 -91 92 -89zm1904 240c-29,55 -59,70 -115,97 -54,21 -95,-31 -61,-61l139 -110c49,-34 83,1 37,74zm-77 -110l-141 108c-47,38 -104,-26 -59,-65l151 -117c49,-26 97,27 49,75zm-204 -216l-141 108c-48,39 -105,-26 -59,-65l151 -116c49,-27 97,27 49,73zm105 108l-141 109c-48,37 -105,-27 -59,-66l151 -116c49,-26 97,27 49,73zm-399 -25c-13,58 27,126 110,101 -41,88 71,133 110,115 -23,59 41,140 106,103 -12,71 41,66 89,78 -37,40 -169,74 -224,58 -122,-60 -216,-208 -309,-286 -33,-49 -43,-111 -21,-165 92,-85 162,-169 257,-230 36,114 -97,131 -118,225zm-2324 -223l18 264c-161,0 -401,206 -506,301 -136,-66 -195,-251 -204,-345 29,41 41,21 60,26 42,-14 54,-24 72,-61 11,37 13,56 71,61 31,-11 74,-11 83,-57 12,44 19,52 71,54 34,-4 66,-14 77,-63 17,40 37,58 94,63 33,-9 69,-33 76,-69 14,-78 18,-131 83,-178 0,0 2,2 2,2zm-123 -5l-1 143c-14,71 -83,74 -101,-6l0 -136c4,-76 93,-69 103,-1zm-154 0l0 143c-16,71 -83,74 -103,-6l0 -136c5,-76 94,-69 103,-1zm-156 0l-1 143c-16,71 -83,74 -103,-6l0 -136c5,-76 94,-69 104,-1zm-162 -2l0 159c-16,55 -76,45 -93,-7 -6,-75 2,-72 15,-139 12,-62 59,-78 78,-13zm1904 -300c159,173 163,313 162,571l201 0c-16,-334 -55,-427 -363,-571zm-615 0c-160,173 -164,313 -162,571l-201 0c16,-334 54,-427 363,-571zm368 -102c0,316 -11,508 51,614 30,35 58,47 107,59l128 0c-7,-429 -88,-551 -286,-673zm-122 0c0,316 11,508 -49,614 -31,35 -58,47 -107,59l-128 0c7,-429 88,-551 285,-673zm1740 164c-99,-57 -339,-100 -543,50l136 180 -58 53 -350 -428 60 -47 153 171c164,-133 204,-281 187,-469 142,43 380,169 414,490zm-1689 5213c-105,-124 -194,-165 -460,-191 -255,-25 -729,-12 -1040,-21 -223,-7 -368,-82 -392,-314 170,133 553,65 924,64 425,-2 859,-34 968,180 107,-214 542,-182 967,-180 372,1 755,69 925,-64 -24,232 -170,307 -393,314 -311,9 -786,-4 -1040,21 -265,26 -355,66 -459,191zm0 174c-147,-410 -1211,-167 -1538,-248 -463,-115 -416,-386 -480,-659 286,295 713,142 1144,142 317,0 729,-47 875,128 145,-175 556,-128 874,-128 431,0 798,154 1118,-142 -29,248 -2,597 -455,659 -334,45 -1391,-162 -1537,248zm173 -1820c-12,41 -16,86 25,120 -57,56 -41,133 5,190 -54,51 -51,155 1,200 -52,45 -58,132 6,193 -29,27 -34,63 -34,99 -104,-128 -111,-338 -111,-409 0,-45 -4,-282 107,-393zm-366 1c12,42 14,85 -25,118 56,56 40,133 -6,190 54,51 52,155 -1,200 53,45 59,132 -5,193 29,27 43,61 43,98 104,-128 101,-337 101,-408 0,-44 4,-280 -107,-392zm1599 -423c47,0 86,-38 86,-84 0,-46 -39,-85 -86,-85 -47,0 -87,39 -87,85 0,46 40,84 87,84zm-223 0c47,0 87,-38 87,-84 0,-46 -40,-85 -87,-85 -47,0 -86,39 -86,85 0,46 39,84 86,84zm-221 0c47,0 86,-38 86,-84 0,-46 -39,-85 -86,-85 -47,0 -87,39 -87,85 0,46 40,84 87,84zm-229 0c47,0 87,-38 87,-84 0,-46 -40,-85 -87,-85 -47,0 -86,39 -86,85 0,46 39,84 86,84zm-728 54c47,0 87,-38 87,-84 0,-46 -40,-85 -87,-85 -47,0 -86,39 -86,85 0,46 39,84 86,84zm-334 462c47,0 87,-38 87,-84 0,-46 -40,-84 -87,-84 -47,0 -84,38 -84,84 0,46 37,84 84,84zm653 2c47,0 86,-38 86,-84 0,-46 -39,-84 -86,-84 -47,0 -86,38 -86,84 0,46 39,84 86,84zm-653 190c47,0 87,-37 87,-83 0,-46 -40,-84 -87,-84 -47,0 -84,38 -84,84 0,46 37,83 84,83zm653 7c47,0 86,-38 86,-84 0,-46 -39,-84 -86,-84 -47,0 -86,38 -86,84 0,46 39,84 86,84zm-653 200c47,0 87,-39 87,-85 0,-46 -40,-83 -87,-83 -47,0 -84,37 -84,83 0,46 37,85 84,85zm653 -4c47,0 86,-38 86,-84 0,-46 -39,-84 -86,-84 -47,0 -86,38 -86,84 0,46 39,84 86,84zm-653 204c47,0 87,-38 87,-84 0,-46 -40,-84 -87,-84 -47,0 -84,38 -84,84 0,46 37,84 84,84zm653 -5c47,0 86,-38 86,-84 0,-46 -39,-84 -86,-84 -47,0 -86,38 -86,84 0,46 39,84 86,84zm-652 187c41,0 75,-34 75,-75 0,-40 -34,-75 -75,-75 -41,0 -76,34 -76,75 0,40 35,75 76,75zm650 -5c42,0 76,-33 76,-75 0,-41 -34,-73 -76,-73 -42,0 -76,32 -76,73 0,42 34,75 76,75zm-1168 -4356c47,0 87,-38 87,-84 0,-46 -40,-85 -87,-85 -47,0 -86,39 -86,85 0,46 39,84 86,84zm-11 -215c47,0 86,-39 86,-85 0,-46 -39,-84 -86,-84 -47,0 -87,38 -87,84 0,46 40,85 87,85zm-113 -205c47,0 87,-38 87,-84 0,-46 -40,-85 -87,-85 -47,0 -86,39 -86,85 0,46 39,84 86,84zm-201 -95c47,0 87,-39 87,-85 0,-46 -40,-84 -87,-84 -47,0 -86,38 -86,84 0,46 39,85 86,85zm-250 -10c47,0 87,-38 87,-84 0,-46 -40,-85 -87,-85 -47,0 -86,39 -86,85 0,46 39,84 86,84zm-204 129c47,0 86,-39 86,-85 0,-46 -39,-84 -86,-84 -47,0 -87,38 -87,84 0,46 40,85 87,85zm-128 192c47,0 87,-39 87,-85 0,-46 -40,-84 -87,-84 -47,0 -86,38 -86,84 0,46 39,85 86,85zm13 224c47,0 86,-38 86,-84 0,-46 -39,-85 -86,-85 -47,0 -87,39 -87,85 0,46 40,84 87,84zm501 3366l0 197c-87,-71 -99,-100 -116,-194l116 -2zm2811 -85c503,62 553,905 6,1025 -374,57 -722,-312 -1112,-69 9,-25 -21,-56 -42,-66 64,-60 66,-146 8,-199 59,-41 65,-153 4,-206 60,-51 54,-146 4,-190 17,-12 42,-21 48,-59 107,133 401,125 676,-65 186,-5 337,-84 409,-171zm-3043 73c37,156 170,290 319,338l1 -218c169,99 461,163 656,40 2,27 24,47 52,61 -68,57 -57,135 0,191 -60,41 -55,158 4,199 -59,49 -81,152 7,212 -25,6 -49,26 -48,72 -414,-374 -863,188 -1300,10 -390,-217 -217,-1104 309,-904zm205 -212c110,-13 83,124 5,111l-220 0c-87,9 -122,-116 -8,-111l223 0zm8 -167c110,-12 83,126 5,113l-220 0c-87,8 -122,-116 -9,-113l223 0zm0 -164c110,-12 83,126 5,113l-220 0c-87,8 -122,-116 -9,-113l223 0zm0 -167c110,-12 83,124 5,113l-220 0c-87,8 -122,-116 -9,-113l223 0zm2697 81c10,15 -4,50 -16,66 -58,-6 -104,-4 -134,53 -28,-53 -174,-59 -220,0 -65,-61 -169,-68 -215,11 -27,-32 -60,-56 -101,-57 -24,-13 -29,-50 -30,-73l716 0zm-1257 -271c93,50 405,90 431,196l18 156c-33,32 -68,88 -68,149 31,209 228,390 381,469 -95,63 -286,115 -398,0 -75,-101 -251,-145 -340,-82 -147,102 -169,128 -211,274 -30,-105 -87,-256 -204,-277 -83,-49 -209,-32 -335,75 -92,77 -168,64 -250,46 8,-77 30,-278 80,-355 185,-311 577,-497 897,-651zm-1173 65c-25,235 98,468 -139,732 36,-74 7,-124 -36,-139 63,-43 82,-121 17,-167 51,-33 53,-135 -2,-165 72,-59 16,-166 93,-218 23,-26 41,-39 65,-44 0,0 2,0 2,0zm906 -153l125 55c-187,99 -374,188 -533,325 -227,165 -395,557 -431,701 -46,4 -78,-18 -119,-52 11,-379 397,-751 638,-882 104,-58 200,-108 320,-147zm-1301 90l145 0 0 90 -145 0 0 -90zm1094 -1923c222,0 296,105 296,167 0,-61 82,-167 310,-167l362 0c25,131 10,290 -39,440 -92,175 -281,258 -419,408 -133,185 -110,556 -70,653 57,140 268,216 398,217 130,1 424,82 422,360l-259 -1c-68,-219 -632,-146 -894,-479 -110,-221 2,-501 -78,-729 -104,-191 -209,-130 -351,-428 -53,-105 -75,-261 -53,-441l375 0z"/>
  <path class="fil4" d="M6523 2170c2378,0 4307,1929 4307,4307 0,2378 -1929,4307 -4307,4307 -2378,0 -4307,-1929 -4307,-4307 0,-2378 1929,-4307 4307,-4307zm0 -151c2461,0 4458,1996 4458,4458 0,2461 -1996,4458 -4458,4458 -2461,0 -4458,-1996 -4458,-4458 0,-2461 1996,-4458 4458,-4458z"/>
  <path class="fil4" d="M6523 186c3499,0 6336,2827 6336,6314 0,3486 -2837,6314 -6336,6314 -3499,0 -6336,-2827 -6336,-6314 0,-3486 2837,-6314 6336,-6314zm0 -186c3602,0 6523,2911 6523,6500 0,3589 -2921,6500 -6523,6500 -3602,0 -6523,-2911 -6523,-6500 0,-3589 2921,-6500 6523,-6500z"/>
  <path class="fil1" d="M5026 11320l242 -51 22 6 -187 749c-12,48 -18,80 -17,94 0,12 7,25 19,35 11,10 37,21 77,30l-6 25 -334 -83 6 -25c42,10 71,13 84,9 14,-2 26,-9 33,-18 7,-10 19,-42 31,-93l119 -479c16,-64 23,-106 24,-126 2,-15 -2,-27 -10,-34 -5,-9 -14,-15 -26,-17 -16,-5 -39,-4 -73,4l-4 -24zm713 1033l2 -25c58,3 113,-6 165,-28 52,-22 105,-64 157,-124 53,-61 92,-130 117,-207 -75,38 -140,55 -197,51 -63,-6 -116,-35 -157,-89 -41,-54 -59,-122 -52,-203 7,-80 37,-149 88,-207 61,-71 137,-102 225,-95 75,7 136,43 183,109 59,83 84,180 73,290 -9,101 -40,195 -99,278 -56,83 -132,149 -225,200 -76,40 -155,58 -241,49l-38 -2zm457 -431c13,-58 21,-104 24,-140 4,-42 1,-90 -9,-142 -11,-52 -29,-91 -52,-120 -26,-30 -55,-45 -90,-49 -39,-3 -76,11 -109,44 -33,33 -53,86 -59,155 -8,94 6,170 40,226 27,40 60,64 102,67 21,2 45,-1 74,-8 29,-7 55,-19 79,-35zm1128 251l-56 179 -536 28 -1 -24c150,-153 255,-277 315,-371 60,-94 88,-179 84,-255 -3,-59 -23,-104 -61,-140 -36,-35 -80,-52 -130,-49 -44,2 -84,17 -117,45 -35,29 -60,68 -74,119l-25 1c6,-83 32,-148 76,-195 44,-46 100,-73 171,-76 74,-4 137,17 188,62 52,44 80,99 84,164 2,45 -6,92 -26,140 -30,75 -80,154 -149,238 -106,128 -172,206 -198,232l238 -13c48,-2 82,-6 101,-11 19,-4 36,-13 50,-25 16,-11 30,-29 39,-49l26 -1zm351 -353c-24,-101 -30,-192 -15,-273 14,-81 41,-145 84,-191 32,-38 70,-62 111,-72 69,-16 138,6 209,62 88,71 149,180 183,327 24,103 27,194 16,274 -14,80 -38,141 -78,183 -38,44 -80,70 -122,79 -85,21 -167,-13 -247,-100 -68,-73 -114,-169 -141,-288zm131 -13c30,121 67,219 115,289 40,58 85,83 134,71 25,-5 45,-21 66,-48 20,-28 32,-67 33,-119 3,-80 -11,-189 -43,-326 -23,-101 -53,-183 -89,-247 -28,-46 -56,-77 -87,-93 -21,-10 -44,-13 -70,-7 -30,7 -52,26 -71,59 -23,43 -30,105 -24,186 7,80 19,158 35,234z"/>
 </g>
</svg>
